<?xml version="1.0" standalone="no"?>
<!DOCTYPE svg PUBLIC "-//W3C//DTD SVG 1.1//EN" "http://www.w3.org/Graphics/SVG/1.1/DTD/svg11.dtd" >
<svg>
<metadata>
Created by FontForge 20090914 at Sat Feb 20 03:54:42 2016
 By www-data
Converted by ALLTYPE
</metadata>
<defs>
<font id="AvantGarde-Demi" horiz-adv-x="280" >
  <font-face 
    font-family="AvantGarde-Demi"
    font-weight="5"
    font-stretch="normal"
    units-per-em="1000"
    panose-1="0 0 0 0 0 0 0 0 0 0"
    ascent="800"
    descent="-200"
    x-height="554"
    cap-height="739"
    bbox="-121 -250.999 1248 1025"
    underline-thickness="50"
    underline-position="-55"
    unicode-range="U+0020-U+F002"
  />
<missing-glyph 
 />
    <glyph glyph-name=".notdef" 
 />
    <glyph glyph-name="space" unicode=" " 
 />
    <glyph glyph-name="space" unicode="&#xa0;" 
 />
    <glyph glyph-name="exclam" unicode="!" 
d="M72 0v127h133v-127h-133v0zM72 188v551h133v-551h-133v0z" />
    <glyph glyph-name="quotedbl" unicode="&#x22;" horiz-adv-x="360" 
d="M74 513v226h75v-226h-75v0zM208 513v226h75v-226h-75v0z" />
    <glyph glyph-name="numbersign" unicode="#" horiz-adv-x="560" 
d="M500 331v-98h-102l-32 -233h-89l31 233h-85l-32 -233h-88l31 233h-100v98h114l13 92h-99v98h111l30 219h87l-29 -219h86l29 219h90l-30 -219h90v-98h-103l-12 -92h89v0zM334 423h-86l-12 -92h85l13 92v0z" />
    <glyph glyph-name="dollar" unicode="$" horiz-adv-x="560" 
d="M60 249l130.999 0.00292969c0.666992 -24.667 9.33398 -45.334 26.001 -62.001s37 -25 61 -25s44.333 8.5 61 25.5s25 37.5 25 61.5c0 10.667 -2.33301 21 -7 31s-10.667 19 -18 27c-6 6.66699 -13 12 -21 16s-16.333 7.33301 -25 10
c-2.66699 0.666992 -5.5 1.5 -8.5 2.5s-5.83301 1.83301 -8.5 2.5c-52.667 15.333 -97.167 37.666 -133.5 66.999s-54.5 74.666 -54.5 135.999c0 25.333 4 49 12 71s20.667 42.333 38 61l2.5 2.5c1 1 1.83301 2.16699 2.5 3.5c10 10.667 21.833 20.5 35.5 29.5
s27.834 13.833 42.501 14.5v132h125v-131c36.667 -14.667 66 -37 88 -67s34.333 -64.667 37 -104l-125 1c-3.33301 16.667 -10.833 30.667 -22.5 42s-26.834 17 -45.501 17c-17.333 0 -32.5 -6.66699 -45.5 -20s-19.5 -28.666 -19.5 -45.999c0 -26 8.66699 -44.667 26 -56
s36.333 -20.333 57 -27l6 -2l6 -2c3.33301 -1.33301 6.83301 -2.5 10.5 -3.5s7.16699 -2.16699 10.5 -3.5c17.333 -5.33301 34.166 -11.333 50.499 -18s31.833 -16.334 46.5 -29.001c23.333 -20 40.5 -43.667 51.5 -71s16.5 -56.333 16.5 -87c0 -28 -4 -53.333 -12 -76
s-21.333 -44.667 -40 -66c-12.667 -14 -27 -26.333 -43 -37s-33.667 -18 -53 -22v-132h-125v133c-43.333 6.66699 -81.166 28.5 -113.499 65.5s-48.5 77.833 -48.5 122.5l1 13v0z" />
    <glyph glyph-name="percent" unicode="%" horiz-adv-x="860" 
d="M655 342c50 -0.666992 92.5 -18.5 127.5 -53.5s52.5 -77.5 52.5 -127.5s-17.5 -92.333 -52.5 -127s-77.5 -52 -127.5 -52s-92.5 17.5 -127.5 52.5s-52.5 77.167 -52.5 126.5c0 50 17.5 92.5 52.5 127.5s77.5 52.5 127.5 52.5v1zM655 231
c-19.333 -0.666992 -35.666 -7 -48.999 -19s-20 -27.667 -20 -47s6.66699 -36.333 20 -51s29.666 -22 48.999 -22s35.666 7.5 48.999 22.5s20 31.833 20 50.5c0 19.333 -6.66699 35 -20 47s-29.666 18 -48.999 18v1zM223 0l306 739h102l-306 -739h-102v0zM201 753
c49.333 -0.666992 91.5 -18.5 126.5 -53.5s52.5 -77.5 52.5 -127.5c0 -49.333 -17.5 -91.666 -52.5 -126.999s-77.167 -53 -126.5 -53c-50 0 -92.5 17.667 -127.5 53s-52.5 77.666 -52.5 126.999c0 50 17.5 92.5 52.5 127.5s77.5 52.5 127.5 52.5v1zM201 642
c-19.333 -0.666992 -35.668 -7.66699 -49.001 -21s-20 -29.666 -20 -48.999c0 -18.667 6.83301 -34.834 20.5 -48.501s29.5 -20.5 47.5 -20.5c18.667 0 34.834 6.83301 48.501 20.5s20.5 29.834 20.5 48.501c0 19.333 -6.5 35.666 -19.5 48.999s-29.167 20 -48.5 20v1z" />
    <glyph glyph-name="ampersand" unicode="&#x26;" horiz-adv-x="680" 
d="M513 436l147 0.000976562l-127 -223l131 -142l-97 -85l-101 106c-22 -31.333 -48.5 -57.5 -79.5 -78.5s-66.167 -31.5 -105.5 -31.5c-65.333 0 -122.666 21.833 -171.999 65.5s-74 99.167 -74 166.5c0 52 12.833 94.833 38.5 128.5s59.167 61.834 100.5 84.501
c-18.667 19.333 -33.667 39.666 -45 60.999s-17 45.666 -17 72.999c0 54 17.667 99.333 53 136s80.333 55 135 55c51.333 0 95.666 -17 132.999 -51s56 -77.667 56 -131c0 -42 -10.167 -78 -30.5 -108s-48.833 -54.667 -85.5 -74l68 -75l72 123v0zM373 193.001l-115.001 129
c-23.333 -10.667 -44.166 -25 -62.499 -43s-27.5 -41.667 -27.5 -71c0 -28.667 9.66699 -52 29 -70s42.666 -27 69.999 -27h0.5h0.5h0.5h0.5c25.333 -0.666992 46.333 7.5 63 24.5s30.334 35.833 41.001 56.5v1zM288.999 481.001c0.666992 0 1.5 0.166992 2.5 0.5
s1.83301 0.833008 2.5 1.5c17.333 8 33.166 18 47.499 30s21.5 28.667 21.5 50c-0.666992 19.333 -6.66699 34.166 -18 44.499s-26.666 15.5 -45.999 15.5c-17.333 0 -31.666 -5.5 -42.999 -16.5s-17 -25.167 -17 -42.5c0 -13.333 3.66699 -25.666 11 -36.999
s15.666 -22 24.999 -32c2 -2.66699 4.33301 -5.16699 7 -7.5s5 -4.83301 7 -7.5v1z" />
    <glyph glyph-name="quotesingle" unicode="'" horiz-adv-x="220" 
d="M74 513v226h76v-226h-76v0z" />
    <glyph glyph-name="parenleft" unicode="(" horiz-adv-x="380" 
d="M349 12l-0.000976562 -139.999c-33.333 5.33301 -64.666 20.166 -93.999 44.499s-54.333 50.5 -75 78.5c-4 4 -7.66699 8.5 -11 13.5l-10 14.5c-28 43.333 -49.167 88.5 -63.5 135.5s-21.5 95.833 -21.5 146.5c0 47.333 6.66699 93.666 20 138.999
s32.333 87.666 57 126.999c22.667 36 50.667 70 84 102s71.333 53.333 114 64v-138c-46 -35.333 -80.5 -79.166 -103.5 -131.499s-34.5 -107.166 -34.5 -164.499c0 -6 0.166992 -12 0.5 -18s0.833008 -11.667 1.5 -17c4 -50 17.5 -98 40.5 -144s54.833 -83.667 95.5 -113v1z
" />
    <glyph glyph-name="parenright" unicode=")" horiz-adv-x="380" 
d="M37 599v139c42.667 -11.333 80.667 -33 114 -65s61.333 -66 84 -102c25.333 -39.333 44.5 -81.666 57.5 -126.999s19.5 -91.666 19.5 -138.999c0 -50 -6.83301 -98 -20.5 -144s-34.167 -90.333 -61.5 -133c-2.66699 -4.66699 -5.5 -9.16699 -8.5 -13.5l-9.5 -13.5
c-22 -28 -47.833 -54.833 -77.5 -80.5s-62.167 -41.834 -97.5 -48.501v140c40.667 28.667 72.5 66 95.5 112s36.5 94 40.5 144c0.666992 5.33301 1.16699 11 1.5 17s0.5 12 0.5 18c0 57.333 -11.5 112.166 -34.5 164.499s-57.5 95.833 -103.5 130.5v1z" />
    <glyph glyph-name="asterisk" unicode="*" horiz-adv-x="440" 
d="M178 456l-62 30l54 91l-100 -7v69l100 -6l-54 89l61 30l45 -90l46 91l57 -35l-54 -85l100 7v-70l-102 6l56 -84l-56 -36l-47 92l-44 -92v0z" />
    <glyph glyph-name="plus" unicode="+" horiz-adv-x="600" 
d="M245 379v191h116v-191h194v-116h-194v-198h-116v198h-194v116h194v0z" />
    <glyph glyph-name="comma" unicode="," 
d="M72 0v133h133v-128c0 -20 -1.16699 -37.5 -3.5 -52.5s-9.5 -29.833 -21.5 -44.5c-1.33301 -2 -3 -4 -5 -6l-6 -6c-10 -10 -21.5 -18 -34.5 -24s-26.167 -9.66699 -39.5 -11c-2.66699 -0.666992 -5.16699 -1 -7.5 -1h-7.5h-3.5h-3.5v67
c16.667 2.66699 30.5 8.16699 41.5 16.5s16.5 21.5 16.5 39.5v17h-59v0z" />
    <glyph glyph-name="hyphen" unicode="-" horiz-adv-x="420" 
d="M74 259v118h277v-118h-277v0z" />
    <glyph glyph-name="period" unicode="." 
d="M72 0v133h133v-133h-133v0z" />
    <glyph glyph-name="slash" unicode="/" horiz-adv-x="460" 
d="M26 -128l323 867h94l-323 -867h-94v0z" />
    <glyph glyph-name="zero" unicode="0" horiz-adv-x="560" 
d="M525 493l0.000976562 -250.999c0 -33.333 -4 -65.333 -12 -96s-23.333 -58.667 -46 -84c-21.333 -24 -46.833 -42.667 -76.5 -56s-60.167 -21 -91.5 -23c-2.66699 -0.666992 -5.33398 -1 -8.00098 -1h-8c-34.667 0 -67.834 5.83301 -99.501 17.5s-60.167 29.5 -85.5 53.5
c-28.667 26.667 -47.167 56.5 -55.5 89.5s-12.5 67.833 -12.5 104.5v246c0 32 4 63.5 12 94.5s23 58.833 45 83.5c21.333 24 46.833 42.667 76.5 56s60.167 21.333 91.5 24c4 0.666992 7.83301 1 11.5 1h10.5h4.5h4.5c32 -1.33301 62.833 -7.83301 92.5 -19.5
s55.834 -28.834 78.501 -51.501c26 -25.333 43.833 -54.333 53.5 -87s14.5 -66.667 14.5 -102v1zM163.001 491.001v-239.003v-13c0 -4 0.333008 -8.33301 1 -13c0.666992 -13.333 2.66699 -26.666 6 -39.999s9.66602 -25.333 18.999 -36s20.5 -19.334 33.5 -26.001
s26.5 -10.667 40.5 -12c2 -0.666992 4.16699 -1 6.5 -1h6.5c17.333 0 34 3.5 50 10.5s29.333 17.167 40 30.5c11.333 14 18.5 29.333 21.5 46s4.5 33.667 4.5 51v247c0 34.667 -10 64.334 -30 89.001s-48.667 37 -86 37h-3.5h-3.5
c-15.333 -1.33301 -30.166 -5.66602 -44.499 -12.999s-26.5 -16.666 -36.5 -27.999c-10.667 -14 -17.5 -28.5 -20.5 -43.5s-4.5 -30.833 -4.5 -47.5v1z" />
    <glyph glyph-name="one" unicode="1" horiz-adv-x="560" 
d="M246 0v613h-93v126h226v-739h-133v0z" />
    <glyph glyph-name="two" unicode="2" horiz-adv-x="560" 
d="M42 0l-0.000976562 125.998l255 237c22.667 20.667 43.334 42.834 62.001 66.501s28 51.834 28 84.501c0 31.333 -9.83301 57.166 -29.5 77.499s-45.167 30.5 -76.5 30.5c-37.333 0 -65.833 -12.667 -85.5 -38s-29.167 -55 -28.5 -89v-6v-6l-133 1v27
c0 65.333 23.333 121.833 70 169.5s103 71.5 169 71.5c69.333 0 127.833 -23.167 175.5 -69.5s71.5 -104.5 71.5 -174.5c0 -30 -5.16699 -58.167 -15.5 -84.5s-24.5 -51.166 -42.5 -74.499l-93 -97l-141 -126h292v-126h-478v0z" />
    <glyph glyph-name="three" unicode="3" horiz-adv-x="560" 
d="M217 354l-0.000976562 125.997h9c27.333 -0.666992 51.833 3.66602 73.5 12.999s32.5 30.333 32.5 63c0 20.667 -6.66699 36.834 -20 48.501s-30 17.5 -50 17.5c-17.333 0 -31.666 -5.83301 -42.999 -17.5s-17 -26.167 -17 -43.5v-0.5v-0.5v-0.5v-0.5l-133 1
c-0.666992 52 18.166 97 56.499 135s83.833 57 136.5 57c54.667 0 102.167 -19 142.5 -57s60.5 -84.667 60.5 -140c0 -26.667 -5 -51.5 -15 -74.5s-26.333 -42.167 -49 -57.5c38 -13.333 66.5 -37.5 85.5 -72.5s29.5 -72.5 31.5 -112.5v-6v-6
c0 -72 -25.167 -130.667 -75.5 -176s-110.833 -68 -181.5 -68c-65.333 0 -122.166 23 -170.499 69s-73.5 101.667 -75.5 167l134 1c1.33301 -31.333 14 -57.166 38 -77.499s51.333 -30.5 82 -30.5c32.667 0 60.167 11.5 82.5 34.5s33.5 50.167 33.5 81.5
c0 22 -4.5 41.833 -13.5 59.5s-21.833 31.834 -38.5 42.501c-16 10.667 -32.667 17.334 -50 20.001s-35 4 -53 4l-13 1v0z" />
    <glyph glyph-name="four" unicode="4" horiz-adv-x="560" 
d="M0 219l340 520h112v-503h78v-126h-78v-110h-133v110h-319v109v0zM319 236v278l-177 -278h177v0z" />
    <glyph glyph-name="five" unicode="5" horiz-adv-x="560" 
d="M449 739l0.000976562 -125.998h-235l-23 -136c10 4 20.5 7.66699 31.5 11s22.167 5.66602 33.5 6.99902c4.66699 0.666992 9.16699 1.16699 13.5 1.5s8.83301 0.5 13.5 0.5c70 0 127 -26.167 171 -78.5s66 -111.833 66 -178.5c0 -70.667 -24.833 -131.334 -74.5 -182.001
s-109.834 -76 -180.501 -76c-64 0 -121.5 23.167 -172.5 69.5s-77.833 101.833 -80.5 166.5l133 1c4 -30 16.5 -55.5 37.5 -76.5s46.833 -31.5 77.5 -31.5c37.333 0 67.833 12.5 91.5 37.5s35.167 56.167 34.5 93.5c0.666992 34 -11.5 63.333 -36.5 88s-54.5 37 -88.5 37
c-19.333 0 -37.333 -4.33301 -54 -13s-31 -20.667 -43 -36l-119 34l70 387h334v0z" />
    <glyph glyph-name="six" unicode="6" horiz-adv-x="560" 
d="M286 739h157.001l-165 -251l37 3c29.333 -0.666992 57.166 -7.33398 83.499 -20.001s49.5 -29.667 69.5 -51c22.667 -24 39.167 -50.5 49.5 -79.5s15.5 -61.167 15.5 -96.5c0 -71.333 -24.333 -132.833 -73 -184.5s-109.334 -77.5 -182.001 -77.5
c-74.667 0 -136.167 25.667 -184.5 77s-72.5 113.333 -72.5 186c0 32 4.83301 62.333 14.5 91s22.834 55.334 39.501 80.001l211 323v0zM276.001 368c-34 -0.666992 -62.835 -13 -86.502 -37s-35.5 -53.667 -35.5 -89s11.333 -66 34 -92s52.334 -39 89.001 -39
c34.667 0 63.834 12.333 87.501 37s35.5 54 35.5 88c0 35.333 -11.833 66 -35.5 92s-53.167 39 -88.5 39v1z" />
    <glyph glyph-name="seven" unicode="7" horiz-adv-x="560" 
d="M85 0l276 613h-296v126h435v-126l-267 -613h-148v0z" />
    <glyph glyph-name="eight" unicode="8" horiz-adv-x="560" 
d="M140 411c-6 5.33301 -11.5 10.8301 -16.5 16.4971s-9.5 11.167 -13.5 16.5c-10.667 14.667 -18.334 29.667 -23.001 45s-7 34.333 -7 57c0 56.667 18.167 105.167 54.5 145.5s83.5 60.5 141.5 60.5c56.667 0 104.167 -19.833 142.5 -59.5s57.5 -87.5 57.5 -143.5
c0 -28.667 -4.66699 -54.167 -14 -76.5s-24.666 -43.166 -45.999 -62.499c36.667 -18.667 63.667 -44.5 81 -77.5s26 -70.5 26 -112.5c0 -66 -24.5 -122.167 -73.5 -168.5s-106.167 -69.5 -171.5 -69.5c-70 0 -128.667 23.5 -176 70.5s-71 105.5 -71 175.5v10
c0 3.33301 0.333008 6.33301 1 9c3.33301 34.667 14.333 67.334 33 98.001s43.667 52.334 75 65.001v1zM277 338.997c-30.667 -0.666992 -57.167 -12 -79.5 -34s-33.5 -49.667 -33.5 -83c0 -30.667 11.167 -56.834 33.5 -78.501s48.833 -32.5 79.5 -32.5
c31.333 0 58 10.833 80 32.5s33 47.834 33 78.501c0 33.333 -11 61 -33 83s-48.667 33 -80 33v1zM279 622.997c-21.333 -0.666992 -39.666 -8.33301 -54.999 -23s-23.333 -32.667 -24 -54c0.666992 -21.333 8.66699 -39.666 24 -54.999s33.666 -23 54.999 -23
s39.5 7.66699 54.5 23s22.5 33.666 22.5 54.999s-7.5 39.333 -22.5 54s-33.167 22 -54.5 22v1z" />
    <glyph glyph-name="nine" unicode="9" horiz-adv-x="560" 
d="M111 0l163 248.003h-25c-68 -0.666992 -122.833 22.5 -164.5 69.5s-62.5 103.167 -62.5 168.5c0 73.333 23.667 136 71 188s108.333 78 183 78c35.333 0 69 -6.83301 101 -20.5s60.333 -32.834 85 -57.501c25.333 -26.667 43.333 -55.5 54 -86.5s16 -64.5 16 -100.5
c0 -26.667 -3.16699 -50.834 -9.5 -72.501s-14.833 -42.834 -25.5 -63.501l-16.5 -27.5l-17.5 -28.5l-196 -295h-156v0zM274 623.003c-33.333 -0.666992 -61.501 -13.5 -84.501 -38.5s-34.5 -53.833 -34.5 -86.5c0 -36 11.333 -66.5 34 -91.5s52.334 -37.5 89.001 -37.5
c35.333 0 64.333 12.833 87 38.5s34 55.5 34 89.5c0 35.333 -12 65 -36 89s-53.667 36 -89 36v1z" />
    <glyph glyph-name="colon" unicode=":" 
d="M72 0v133h133v-133h-133v0zM72 369v133h133v-133h-133v0z" />
    <glyph glyph-name="semicolon" unicode=";" 
d="M72 0v133h133v-128c0 -20 -1.16699 -37.5 -3.5 -52.5s-9.5 -29.833 -21.5 -44.5c-1.33301 -2 -3 -4 -5 -6l-6 -6c-10 -10 -21.5 -18 -34.5 -24s-26.167 -9.66699 -39.5 -11c-2.66699 -0.666992 -5.16699 -1 -7.5 -1h-7.5h-3.5h-3.5v67
c16.667 2.66699 30.5 8.16699 41.5 16.5s16.5 21.5 16.5 39.5v17h-59v0zM72 369v133h133v-133h-133v0z" />
    <glyph glyph-name="less" unicode="&#x3c;" horiz-adv-x="600" 
d="M558 153v-111l-509 225v99l509 227v-111l-362 -167l362 -162v0z" />
    <glyph glyph-name="equal" unicode="=" horiz-adv-x="600" 
d="M555 278v-115h-504v115h504v0zM555 473v-115h-504v115h504v0z" />
    <glyph glyph-name="greater" unicode="&#x3e;" horiz-adv-x="600" 
d="M48 153l362 162l-362 167v111l509 -227v-99l-509 -225v111v0z" />
    <glyph glyph-name="question" unicode="?" horiz-adv-x="560" 
d="M188 0v127h133v-127h-133v0zM165 522l-132.999 0.00292969c0 4 0.333008 8.33301 1 13l2 14c2.66699 20.667 7.5 41 14.5 61s16.833 38 29.5 54c16.667 21.333 37.667 39.333 63 54s51.666 24.667 78.999 30c7.33301 1.33301 14.5 2.33301 21.5 3s14.167 1 21.5 1h8
c2.66699 0 5.66699 -0.333008 9 -1c24.667 -2 48.834 -8.5 72.501 -19.5s44.167 -25.167 61.5 -42.5c23.333 -22.667 40.833 -48.834 52.5 -78.501s17.5 -60.834 17.5 -93.501c0 -37.333 -10.167 -69.833 -30.5 -97.5s-43.833 -53.167 -70.5 -76.5l-13.5 -12
c-4.33301 -4 -8.16602 -8 -11.499 -12c-12 -12.667 -21.333 -26 -28 -40s-10 -31 -10 -51v-3.5v-3.5v-33h-133v29c0 6 0.166992 12.333 0.5 19s1.16602 13.334 2.49902 20.001c1.33301 13.333 4 26.5 8 39.5s8.66699 25.5 14 37.5c7.33301 15.333 15 28.333 23 39
s17 20.667 27 30l14 12l15 13c16 13.333 30 27.166 42 41.499s18 32.5 18 54.5c0 29.333 -8.33301 52.666 -25 69.999s-39.667 26 -69 26c-30.667 0 -53.334 -9.33301 -68.001 -28s-23 -42 -25 -70v1z" />
    <glyph glyph-name="at" unicode="@" horiz-adv-x="740" 
d="M607 142l94.9951 0.000976562c-36.667 -51.333 -80.667 -90.833 -132 -118.5s-108.666 -41.5 -171.999 -41.5c-109.333 0 -202.5 36.167 -279.5 108.5s-115.5 164.166 -115.5 275.499c0 109.333 37.667 201 113 275s167.333 111 276 111c44.667 0 87.334 -7 128.001 -21
s78 -35.667 112 -65c34.667 -28.667 62.167 -62 82.5 -100s30.5 -80.333 30.5 -127c0 -40 -6 -77.5 -18 -112.5s-32.333 -67.167 -61 -96.5l-8 -8c-2.66699 -2.66699 -5.66699 -5.33398 -9 -8.00098c-12.667 -10.667 -27.167 -21 -43.5 -31s-33.166 -18.333 -50.499 -25
c-11.333 -4.66699 -22.5 -8.33398 -33.5 -11.001s-21.5 -4 -31.5 -4c-16 0 -29.833 4.16699 -41.5 12.5s-17.5 20.833 -17.5 37.5v1.5v1.5c-12.667 -14.667 -28.167 -26.334 -46.5 -35.001s-37.5 -13 -57.5 -13c-52.667 0 -93.5 17.5 -122.5 52.5s-43.5 77.5 -43.5 127.5
c0 59.333 18.833 113.166 56.5 161.499s88.167 72.5 151.5 72.5c25.333 0 48.833 -4.66699 70.5 -14s39.834 -24.666 54.501 -45.999l10 53h96l-50 -297c0 -1.33301 -0.166992 -2.66602 -0.5 -3.99902s-0.5 -2.66602 -0.5 -3.99902
c0 -0.666992 -0.166992 -1.16699 -0.5 -1.5s-0.5 -0.833008 -0.5 -1.5c0 -2.66699 -0.166992 -5 -0.5 -7s-0.5 -3.66699 -0.5 -5c0 -4.66699 1.66699 -8.33398 5 -11.001s7 -4 11 -4c3.33301 0 7 0.666992 11 2s8 3 12 5c6 2.66699 12 6.33398 18 11.001
s11.333 9.33398 16 14.001c2.66699 2.66699 5 5.16699 7 7.5s4 4.5 6 6.5c8.66699 12 16 25.667 22 41s10.333 31 13 47c2 8.66699 3.5 17.5 4.5 26.5s1.5 17.5 1.5 25.5c0 85.333 -26.667 151.833 -80 199.5s-121.666 71.5 -204.999 71.5c-90.667 0 -165 -29.333 -223 -88
s-87 -133 -87 -223c0 -94.667 31.5 -170 94.5 -226s140.5 -84 232.5 -84c39.333 0 75.5 7.83301 108.5 23.5s63.833 36.167 92.5 61.5v1zM282.995 345.001c0 -24 6.66797 -45.001 20.001 -63.001s32.666 -27 57.999 -27c31.333 0 56.5 11.5 75.5 34.5s28.5 49.167 28.5 78.5
c0 24.667 -7.5 45.334 -22.5 62.001s-35.167 25 -60.5 25c-26 0 -48.167 -10.167 -66.5 -30.5s-28.833 -42.833 -31.5 -67.5c-0.666992 -2 -1 -4.16699 -1 -6.5v-6.5v1z" />
    <glyph glyph-name="A" unicode="A" horiz-adv-x="740" 
d="M7 0l308 739h107l311 -739h-151l-80 191h-262l-82 -191h-151v0zM290 324h158l-79 224l-79 -224v0z" />
    <glyph glyph-name="B" unicode="B" horiz-adv-x="580" 
d="M68 0l-0.00195312 738.997h134c2.66699 -0.666992 5.33398 -1 8.00098 -1h8h6.5h6.5c28.667 0 57.167 -1.33301 85.5 -4s55.833 -10.667 82.5 -24c30.667 -15.333 55.667 -38.166 75 -68.499s29 -62.833 29 -97.5c0 -28.667 -6.66699 -56 -20 -82
s-33.666 -45.667 -60.999 -59c40.667 -12.667 71.834 -35.167 93.501 -67.5s32.5 -69.5 32.5 -111.5c0 -36 -7.83301 -69 -23.5 -99s-37.834 -55.667 -66.501 -77c-23.333 -17.333 -49 -29.166 -77 -35.499s-56.333 -10.166 -85 -11.499
c-7.33301 -0.666992 -14.5 -1 -21.5 -1h-21.5h-185v0zM204.998 132.997l56.999 0.000976562c20 -0.666992 39.333 0.333008 58 3s37 10 55 22c12.667 8.66699 21.834 19 27.501 31s8.5 25.667 8.5 41c0 18 -4.16699 33 -12.5 45s-20.5 22.333 -36.5 31
c-14.667 7.33301 -29.667 11.666 -45 12.999s-31 2 -47 2h-2.5h-2.5l-60 1v-189v0zM204.997 454.998l26 0.00195312c1.33301 -0.666992 2.5 -1 3.5 -1h2.5h17c6 0 12 0.333008 18 1c9.33301 0 18.5 0.833008 27.5 2.5s17.167 4.16699 24.5 7.5
c13.333 6 23.666 15.333 30.999 28s11 26 11 40c0 15.333 -4.33301 28.666 -13 39.999s-19.667 19.666 -33 24.999c-5.33301 2.66699 -11.333 4.5 -18 5.5s-13.667 1.83301 -21 2.5h-4.5h-5.5h-10.5h-10.5c-3.33301 -0.666992 -6.66602 -1 -9.99902 -1h-10l-25 1v-151v0z
" />
    <glyph glyph-name="C" unicode="C" horiz-adv-x="780" 
d="M597 201l158.999 -0.000976562c-28 -66.667 -73.667 -119.667 -137 -159s-130.333 -59.333 -201 -60h-2.5h-2.5c-106 0 -196.333 38.167 -271 114.5s-112 167.166 -112 272.499c0 104.667 37.5 194.667 112.5 270s163.833 113 266.5 113
c74 0 143.833 -20.167 209.5 -60.5s112.834 -95.166 141.501 -164.499l-156 1c-22.667 27.333 -51.334 49.333 -86.001 66s-70.667 25 -108 25c-67.333 0 -124.666 -25.167 -171.999 -75.5s-71 -110.166 -71 -179.499c0 -65.333 24.167 -123.333 72.5 -174
s105.5 -76 171.5 -76c36.667 0 70.667 7.66699 102 23s59.333 36.333 84 63v1z" />
    <glyph glyph-name="D" unicode="D" horiz-adv-x="700" 
d="M68 0l0.000976562 739.002h155c6 -0.666992 11.833 -1 17.5 -1s11.167 -0.333008 16.5 -1c49.333 -1.33301 98 -7.5 146 -18.5s91.333 -33.167 130 -66.5c34 -28.667 61.5 -63.834 82.5 -105.501s34.5 -84.834 40.5 -129.501c1.33301 -8.66699 2.33301 -17.334 3 -26.001
s1 -17.334 1 -26.001c0 -7.33301 -0.166992 -14.666 -0.5 -21.999s-1.16602 -14.666 -2.49902 -21.999c-5.33301 -44.667 -18.833 -88 -40.5 -130s-49.5 -77.667 -83.5 -107c-44.667 -38 -92.834 -61.5 -144.501 -70.5s-105.834 -13.5 -162.501 -13.5h-158v0z
M205.001 133.002l17.001 -0.00195312c38.667 -0.666992 75.667 1.5 111 6.5s69 19.167 101 42.5c28.667 22 50.667 49 66 81s23 66 23 102c0 38.667 -8.33301 75.5 -25 110.5s-41 63.5 -73 85.5c-24 16.667 -49.833 27.834 -77.5 33.501s-55.834 8.83398 -84.501 9.50098
c-8 0.666992 -16 1 -24 1h-24l-10 1v-473v0z" />
    <glyph glyph-name="E" unicode="E" horiz-adv-x="520" 
d="M68 0v739h397v-133h-260v-170h249v-133h-249v-170h260v-133h-397v0z" />
    <glyph glyph-name="F" unicode="F" horiz-adv-x="480" 
d="M68 0v739h376v-133h-239v-170h228v-133h-228v-303h-137v0z" />
    <glyph glyph-name="G" unicode="G" horiz-adv-x="840" 
d="M781 522l-163.995 -0.00292969c-20.667 28 -47.334 50.667 -80.001 68s-66.334 27 -101.001 29h-6.5h-6.5c-31.333 0 -61.833 -5.5 -91.5 -16.5s-56.167 -26.833 -79.5 -47.5c-21.333 -19.333 -39.333 -42.666 -54 -69.999s-24.334 -55.666 -29.001 -84.999
c-0.666992 -5.33301 -1.16699 -10.5 -1.5 -15.5s-0.5 -10.167 -0.5 -15.5c0 -4.66699 0.166992 -9.5 0.5 -14.5s0.833008 -9.83301 1.5 -14.5c3.33301 -26.667 11.166 -52.5 23.499 -77.5s27.5 -46.833 45.5 -65.5c25.333 -26.667 54.666 -47.167 87.999 -61.5
s67.666 -21.5 102.999 -21.5h5.5h4.5c42 2 82 15.167 120 39.5s66.667 55.5 86 93.5l-309 1v129h482v-16c0 -108.667 -39.167 -199 -117.5 -271s-170.166 -108 -275.499 -108c-106.667 0 -199.167 36.5 -277.5 109.5s-117.5 163.833 -117.5 272.5
c0 109.333 39 201.333 117 276s170 112 276 112h4.5h4.5c73.333 -2 143 -23.667 209 -65s112.667 -96.666 140 -165.999v1z" />
    <glyph glyph-name="H" unicode="H" horiz-adv-x="680" 
d="M68 0v739h137v-296h264v296h137v-739h-137v310h-264v-310h-137v0z" />
    <glyph glyph-name="I" unicode="I" 
d="M68 0v739h137v-739h-137v0z" />
    <glyph glyph-name="J" unicode="J" horiz-adv-x="480" 
d="M277 739l136.999 0.000976562v-521c0 -20 -0.666992 -38.5 -2 -55.5s-4.66602 -33.833 -9.99902 -50.5c-2.66699 -7.33301 -6 -14.833 -10 -22.5s-8.66699 -15.5 -14 -23.5c-18 -26.667 -41.333 -47.334 -70 -62.001s-59.667 -22 -93 -22c-54 0 -101.5 17 -142.5 51
s-62.167 79.333 -63.5 136l137 1c3.33301 -16.667 10.5 -29.5 21.5 -38.5s24.833 -13.5 41.5 -13.5c28.667 0 47.167 9 55.5 27s12.5 39 12.5 63v531v0z" />
    <glyph glyph-name="K" unicode="K" horiz-adv-x="620" 
d="M68 0v739h137v-320l230 320h164l-279 -363l279 -376h-164l-230 324v-324h-137v0z" />
    <glyph glyph-name="L" unicode="L" horiz-adv-x="440" 
d="M68 0v739h137v-606h226v-133h-363v0z" />
    <glyph glyph-name="M" unicode="M" horiz-adv-x="900" 
d="M68 0v739h187l198 -565l201 565h186v-739h-137v554l-191 -554h-116l-191 554v-554h-137v0z" />
    <glyph glyph-name="N" unicode="N" horiz-adv-x="740" 
d="M68 0v739h154l308 -540v540h137v-739h-152l-310 538v-538h-137v0z" />
    <glyph glyph-name="O" unicode="O" horiz-adv-x="840" 
d="M415 753c106.667 -0.666992 197.5 -38.667 272.5 -114s112.5 -166.666 112.5 -273.999c0 -106.667 -37.833 -197.167 -113.5 -271.5s-166.167 -111.5 -271.5 -111.5c-104.667 0 -195 37.167 -271 111.5s-114 164.833 -114 271.5c0 107.333 37.5 198.666 112.5 273.999
s165.833 113 272.5 113v1zM415 620c-68.667 -0.666992 -127.167 -25.5 -175.5 -74.5s-72.5 -108.167 -72.5 -177.5c0 -68.667 24.5 -128.167 73.5 -178.5s107.167 -75.5 174.5 -75.5s125.5 25.167 174.5 75.5s73.5 109.833 73.5 178.5c0 69.333 -24 128.5 -72 177.5
s-106.667 73.5 -176 73.5v1z" />
    <glyph glyph-name="P" unicode="P" horiz-adv-x="560" 
d="M205 0h-137v739h174c2 -0.666992 4.16699 -1 6.5 -1h6.5c33.333 0 65.5 -1.5 96.5 -4.5s61.167 -14.5 90.5 -34.5c30.667 -20.667 54.667 -47.5 72 -80.5s26 -68.167 26 -105.5c0 -36.667 -7.33301 -71.5 -22 -104.5s-36.667 -61.167 -66 -84.5
c-20 -16 -42.333 -27 -67 -33s-49.667 -9.66699 -75 -11c-10.667 -0.666992 -21.167 -1 -31.5 -1h-30.5h-8h-8l-27 1v-280v0zM205 413l25 0.00195312c2.66699 -0.666992 5.16699 -1 7.5 -1h7.5h16.5h16.5c10 0.666992 20 1.5 30 2.5s19.333 2.83301 28 5.5
c20 6.66699 36.167 18.167 48.5 34.5s18.5 35.166 18.5 56.499c0 22.667 -6.66699 41.667 -20 57s-30.333 25.666 -51 30.999c-7.33301 2 -15.333 3.5 -24 4.5s-17.667 1.5 -27 1.5h-18h-17h-8h-8l-25 1v-193v0z" />
    <glyph glyph-name="Q" unicode="Q" horiz-adv-x="840" 
d="M828 105l-0.00195312 -123h-4h-4h-5h-4c-31.333 0 -62 4.66699 -92 14s-57.667 23 -83 41c-20 -12.667 -42.167 -23 -66.5 -31s-49.166 -14 -74.499 -18c-12 -2 -24 -3.5 -36 -4.5s-23.667 -1.5 -35 -1.5c-106.667 0 -199 36.5 -277 109.5s-117 163.833 -117 272.5
c0 53.333 9 103 27 149s45.333 87.333 82 124c37.333 37.333 80.333 65.833 129 85.5s99 29.5 151 29.5c107.333 0 200.166 -36.833 278.499 -110.5s117.5 -166.167 117.5 -277.5c0 -46.667 -7 -89.5 -21 -128.5s-36.333 -76.167 -67 -111.5
c6.66699 -3.33301 13.834 -6.5 21.501 -9.5s15.834 -5.16699 24.501 -6.5c5.33301 -1.33301 10.833 -2.33301 16.5 -3s11.167 -1 16.5 -1l22 1v0zM520.998 139c-34.667 24.667 -72.3359 46.832 -113.003 66.499s-83 29.5 -127 29.5
c-11.333 0 -22.666 -0.833008 -33.999 -2.5s-22.666 -4.83398 -33.999 -9.50098c27.333 -38 60 -65.667 98 -83s80 -26 126 -26c8.66699 0 16.834 0.833008 24.501 2.5s15.167 3.83398 22.5 6.50098c6 2 12 4.33301 18 7s12.333 5.33398 19 8.00098v1zM166.996 373.998
l2.00293 -40.0029c17.333 4.66699 34.666 7.83398 51.999 9.50098s34.666 2.5 51.999 2.5c27.333 0 53 -2 77 -6s47.333 -10.333 70 -19c11.333 -4 22.5 -8.5 33.5 -13.5s22.167 -10.5 33.5 -16.5c2 -1.33301 4.16699 -2.5 6.5 -3.5s4.83301 -2.16699 7.5 -3.5
c20.667 -11.333 41 -23.666 61 -36.999s38.667 -28 56 -44c20.667 21.333 35.834 45.833 45.501 73.5s14.5 56.167 14.5 85.5c0 70.667 -24.667 131.167 -74 181.5s-109.333 75.5 -180 75.5c-34.667 0 -67.834 -6.83301 -99.501 -20.5s-59.834 -33.167 -84.501 -58.5
c-18.667 -18.667 -34.5 -40.667 -47.5 -66s-21.167 -51.666 -24.5 -78.999c0 -3.33301 -0.166992 -7 -0.5 -11s-0.5 -7.66699 -0.5 -11v1z" />
    <glyph glyph-name="R" unicode="R" horiz-adv-x="580" 
d="M68 0v738.995h214c35.333 -1.33301 69.166 -4.66602 101.499 -9.99902s62.5 -19.666 90.5 -42.999c26.667 -22 47.667 -49.167 63 -81.5s23 -65.833 23 -100.5c0 -8.66699 -0.666992 -17.667 -2 -27s-3 -18.666 -5 -27.999c-5.33301 -20 -12.666 -39.333 -21.999 -58
s-20 -34.667 -32 -48c-18 -19.333 -38 -34.666 -60 -45.999s-45.667 -19.666 -71 -24.999l200 -272h-169l-192 283h-2v-283h-137v0zM205 386.995h74.999c6 -0.666992 12.333 -0.833984 19 -0.500977s13.667 0.833008 21 1.5c12.667 2 25.167 5.16699 37.5 9.5
s22.833 10.833 31.5 19.5c11.333 10.667 19.833 22.834 25.5 36.501s8.5 28.167 8.5 43.5c0 16 -3.33301 31.5 -10 46.5s-16.667 27.167 -30 36.5c-16 12 -32.167 19.167 -48.5 21.5s-34.166 3.5 -53.499 3.5l-76 1v-219v0z" />
    <glyph glyph-name="S" unicode="S" horiz-adv-x="520" 
d="M14 208l143 -0.00488281c0 -30 10.333 -53.167 31 -69.5s44.667 -24.5 72 -24.5c26 0 48.5 8.83301 67.5 26.5s28.5 39.834 28.5 66.501c0 36.667 -11.667 63.334 -35 80.001s-49 29.667 -77 39c-2.66699 1.33301 -5.5 2.5 -8.5 3.5s-5.83301 1.83301 -8.5 2.5
c-2 0.666992 -3.83301 1.33398 -5.5 2.00098s-3.5 1.33398 -5.5 2.00098c-22 7.33301 -42.667 15.5 -62 24.5s-37.666 22.167 -54.999 39.5c-15.333 16 -27.833 34.333 -37.5 55s-16.167 42 -19.5 64c0 4 -0.166992 7.83301 -0.5 11.5s-0.5 7.5 -0.5 11.5
c0 60.667 21.667 110.834 65 150.501s94.333 59.5 153 59.5c57.333 0 107.833 -20.5 151.5 -61.5s65.167 -90.5 64.5 -148.5l-141 1c-0.666992 22.667 -9.33398 41 -26.001 55s-35.667 21 -57 21c-22 0 -39.667 -7.33301 -53 -22s-20 -32.667 -20 -54v-0.5v-0.5v-0.5v-0.5
c-0.666992 -24 7.33301 -42.333 24 -55s35 -22.667 55 -30c2 -0.666992 4.33301 -1.5 7 -2.5s5 -1.83301 7 -2.5c3.33301 -1.33301 6.66602 -2.5 9.99902 -3.5s6.66602 -2.16699 9.99902 -3.5c22.667 -7.33301 44.5 -15.5 65.5 -24.5s40.5 -21.167 58.5 -36.5
c26.667 -20.667 46.334 -44.834 59.001 -72.501s19 -59.5 19 -95.5c0 -66 -23.667 -121.333 -71 -166s-103.666 -67 -168.999 -67c-62.667 0 -118.167 21.333 -166.5 64s-72.5 96.334 -72.5 161.001v1z" />
    <glyph glyph-name="T" unicode="T" horiz-adv-x="420" 
d="M143 0v606h-136v133h411v-133h-138v-606h-137v0z" />
    <glyph glyph-name="U" unicode="U" horiz-adv-x="640" 
d="M68 739l137.002 0.000976562v-461v-6.5v-4.5v-5.5v-4.5c0 -14 0.666992 -27.667 2 -41s5.33301 -26.333 12 -39c10 -18.667 23.5 -33.834 40.5 -45.501s36.167 -17.5 57.5 -17.5h3.5h2.5c17.333 1.33301 33.833 6.5 49.5 15.5s28.167 21.167 37.5 36.5
c10 16 15.833 33 17.5 51s2.5 36.333 2.5 55v2.5v2.5v462h137v-461c0 -37.333 -3 -72.833 -9 -106.5s-21 -65.167 -45 -94.5c-24 -28.667 -53.333 -51.667 -88 -69s-70.667 -26 -108 -26c-3.33301 0 -6.83301 0.166992 -10.5 0.5s-7.16699 0.5 -10.5 0.5
c-32 3.33301 -62.833 13 -92.5 29s-54.834 35.667 -75.501 59c-26.667 30.667 -43.334 63 -50.001 97s-10 70.333 -10 109v462v0z" />
    <glyph glyph-name="V" unicode="V" horiz-adv-x="700" 
d="M295 0l-287 739h144l199 -562l199 562h144l-286 -739h-113v0z" />
    <glyph glyph-name="W" unicode="W" horiz-adv-x="900" 
d="M222 0l-215 739h140l129 -517l127 517h100l125 -517l130 517h140l-215 -739h-109l-120 489l-123 -489h-109v0z" />
    <glyph glyph-name="X" unicode="X" horiz-adv-x="680" 
d="M5 0l255 368l-255 371h160l175 -254l176 254h160l-256 -371l256 -368h-160l-176 252l-175 -252h-160v0z" />
    <glyph glyph-name="Y" unicode="Y" horiz-adv-x="620" 
d="M246 0v273l-243 466h151l161 -340l161 340h150l-243 -466v-273h-137v0z" />
    <glyph glyph-name="Z" unicode="Z" horiz-adv-x="500" 
d="M18 117l281 489h-265v133h427v-124l-279 -482h298v-133h-462v117v0z" />
    <glyph glyph-name="bracketleft" unicode="[" horiz-adv-x="320" 
d="M292 739l0.000976562 -143.003c-28 -10 -47.5 -27.167 -58.5 -51.5s-17.833 -50.166 -20.5 -77.499c-0.666992 -10 -1.16699 -19.833 -1.5 -29.5s-0.5 -19.167 -0.5 -28.5v-226c0 -7.33301 0.166992 -14.333 0.5 -21s0.833008 -13.667 1.5 -21
c2 -26.667 8.5 -52.167 19.5 -76.5s30.833 -41.166 59.5 -50.499v-141c-33.333 1.33301 -64 12.5 -92 33.5s-51.333 44.5 -70 70.5c-24.667 34 -40.167 70.333 -46.5 109s-9.5 78.334 -9.5 119.001v232c0 38 3.66699 73.333 11 106s23.333 64.667 48 96
c19.333 24 42.666 46 69.999 66s57 31 89 33v1z" />
    <glyph glyph-name="backslash" unicode="\" horiz-adv-x="640" 
d="M399 0l-315 739h104l315 -739h-104v0z" />
    <glyph glyph-name="bracketright" unicode="]" horiz-adv-x="320" 
d="M255 437l-0.000976562 -230.999c0 -41.333 -3.16699 -81.333 -9.5 -120s-21.833 -75 -46.5 -109c-18.667 -26 -42 -49.5 -70 -70.5s-58.667 -32.167 -92 -33.5v142c28.667 8.66699 48.5 25.167 59.5 49.5s17.5 49.833 19.5 76.5c0.666992 7.33301 1.16699 14.333 1.5 21
s0.5 13.334 0.5 20.001v228c0 8.66699 -0.166992 17.834 -0.5 27.501s-0.833008 19.5 -1.5 29.5c-2.66699 27.333 -9.5 53.166 -20.5 77.499s-30.5 41.166 -58.5 50.499v144c32 -2.66699 61.833 -14 89.5 -34s50.834 -42 69.501 -66c25.333 -31.333 41.5 -63.333 48.5 -96
s10.5 -68.334 10.5 -107.001v1z" />
    <glyph glyph-name="asciicircum" unicode="^" horiz-adv-x="600" 
d="M167 315l-104 47l180 377h120l180 -377l-104 -47l-136 279l-136 -279v0z" />
    <glyph glyph-name="underscore" unicode="_" horiz-adv-x="500" 
d="M500 -138h-500v90h500v-90v0z" />
    <glyph glyph-name="grave" unicode="`" horiz-adv-x="420" 
d="M74 738l57 102l222 -135l-53 -92l-226 125v0z" />
    <glyph glyph-name="a" unicode="a" horiz-adv-x="660" 
d="M615 554v-554.007h-122v75h-2c-16.667 -24 -38.667 -43.667 -66 -59s-55.666 -25.666 -84.999 -30.999l-18.5 -2c-6.33301 -0.666992 -12.5 -1 -18.5 -1c-42.667 0 -81.334 8.16699 -116.001 24.5s-64 38.833 -88 67.5c-22 26.667 -39 57.334 -51 92.001
s-18 71.334 -18 110.001s5.5 74.334 16.5 107.001s29.167 63.334 54.5 92.001c28 32.667 59.167 56.834 93.5 72.501s71.833 23.5 112.5 23.5c38 0 73 -8.16699 105 -24.5s59 -40.166 81 -71.499v79h122v0zM489 277.993c0 46 -14.833 84.834 -44.5 116.501
s-68.167 47.167 -115.5 46.5c-48.667 0.666992 -88.5 -15.333 -119.5 -48s-46.5 -73.334 -46.5 -122.001c0 -45.333 16.167 -83.5 48.5 -114.5s70.833 -46.167 115.5 -45.5c48 -0.666992 87 15 117 47s45 71.667 45 119v1z" />
    <glyph glyph-name="b" unicode="b" horiz-adv-x="660" 
d="M54 0l-0.000976562 738.999h133v-243h2c14.667 21.333 34.167 37.833 58.5 49.5s49.5 19.5 75.5 23.5c6.66699 0.666992 13 1.16699 19 1.5s12 0.5 18 0.5c81.333 0 148 -29.667 200 -89s78 -128 78 -206c0 -11.333 -0.666992 -23.166 -2 -35.499
s-3.66602 -24.5 -6.99902 -36.5c-5.33301 -24 -13.333 -47.333 -24 -70s-23.334 -42.667 -38.001 -60c-24.667 -30 -55 -52.833 -91 -68.5s-73.333 -23.5 -112 -23.5c-38 0 -73.167 7.16699 -105.5 21.5s-59.166 37.833 -80.499 70.5l-2 1v-75h-122v0zM345.999 441.999
c-44.667 -0.666992 -83.667 -15.833 -117 -45.5s-50 -67.5 -50 -113.5c0 -48.667 15.333 -89.5 46 -122.5s71 -49.5 121 -49.5c47.333 0 85.666 15.667 114.999 47s44 70.333 44 117c0 46 -14.667 85.167 -44 117.5s-67.666 48.5 -114.999 48.5v1z" />
    <glyph glyph-name="c" unicode="c" horiz-adv-x="640" 
d="M451 180h149.998c-18 -59.333 -53 -107.166 -105 -143.499s-108.667 -54.5 -170 -54.5h-9c-3.33301 0 -6.33301 0.333008 -9 1c-34.667 2 -68.5 10 -101.5 24s-61.833 33 -86.5 57c-30 28.667 -52.5 61.667 -67.5 99s-22.5 76.333 -22.5 117
c0 81.333 29 150.166 87 206.499s127.333 84.5 208 84.5c61.333 0 118.5 -18.667 171.5 -56s87.833 -86 104.5 -146l-150 1c-14.667 24 -32.5 41.833 -53.5 53.5s-45.833 17.5 -74.5 17.5c-47.333 0 -85.833 -15.667 -115.5 -47s-44.5 -70 -44.5 -116
c0 -48.667 15.667 -88.667 47 -120s71.333 -47 120 -47c24.667 0 47.834 6.16699 69.501 18.5s38.834 28.833 51.501 49.5v1z" />
    <glyph glyph-name="d" unicode="d" horiz-adv-x="660" 
d="M613 739l-0.00195312 -739h-122v75h-2c-18.667 -30 -44.167 -52.833 -76.5 -68.5s-66.166 -23.834 -101.499 -24.501h-2.5h-3.5c-40.667 0 -78 8.33301 -112 25s-63.333 39 -88 67c-23.333 27.333 -41.666 58.333 -54.999 93s-20 70.334 -20 107.001
c0 37.333 6.33301 73.5 19 108.5s31.334 66.5 56.001 94.5c23.333 26 51.666 47.5 84.999 64.5s68 26.5 104 28.5c2.66699 0.666992 5.16699 1 7.5 1h7.5h4h4c30.667 -1.33301 60.5 -8.33301 89.5 -21s53.5 -30.667 73.5 -54v243h133v0zM488.998 278
c0 45.333 -16.334 83.833 -49.001 115.5s-71.667 47.5 -117 47.5c-42.667 0 -80 -16.167 -112 -48.5s-48 -69.833 -48 -112.5c0 -46 15.333 -85.667 46 -119s69.334 -50 116.001 -50c46 0 84.833 16.333 116.5 49s47.5 71.667 47.5 117v1z" />
    <glyph glyph-name="e" unicode="e" horiz-adv-x="640" 
d="M601 218l-430 -0.00195312c10 -32.667 28.5 -58.667 55.5 -78s57.167 -29 90.5 -29c25.333 0 49.166 4.33301 71.499 13s39.833 20.334 52.5 35.001l147 1c-16.667 -50 -50.5 -92.167 -101.5 -126.5s-105.833 -51.5 -164.5 -51.5c-80.667 0 -149.5 28.167 -206.5 84.5
s-85.5 124.833 -85.5 205.5c0 82 28.333 152.333 85 211s126.334 88 209.001 88c79.333 0 146.5 -29.167 201.5 -87.5s82.5 -126.166 82.5 -203.499c0 -8.66699 -0.5 -17.167 -1.5 -25.5s-2.16699 -16.5 -3.5 -24.5c-0.666992 -2.66699 -1.16699 -5 -1.5 -7s-0.5 -4 -0.5 -6
v1zM169 335.998l305 -0.000976562c-10.667 32.667 -30 58.334 -58 77.001s-59 28 -93 28h-4h-4c-32 -2 -62 -12.5 -90 -31.5s-46.667 -43.833 -56 -74.5v1z" />
    <glyph glyph-name="f" unicode="f" 
d="M57 0l-0.000976562 436h-47v118h47c1.33301 52 17.833 98 49.5 138s75.5 60 131.5 60l36 -1v-132c-27.333 -0.666992 -47.666 -4.16699 -60.999 -10.5s-21 -24.833 -23 -55.5l77 1v-118h-77v-436h-133v0z" />
    <glyph glyph-name="g" unicode="g" horiz-adv-x="660" 
d="M489 554h122v-470c0 -43.333 -5.5 -82 -16.5 -116s-31.5 -66.667 -61.5 -98c-28.667 -29.333 -62.167 -52.5 -100.5 -69.5s-78.166 -25.5 -119.499 -25.5c-58.667 0 -114 16.5 -166 49.5s-88.333 77.5 -109 133.5h151c10.667 -11.333 23.834 -21.333 39.501 -30
s31.5 -14.667 47.5 -18c6.66699 -2 13 -3.33301 19 -4s12 -1 18 -1c4.66699 0 9.16699 0.166992 13.5 0.5s8.83301 0.833008 13.5 1.5c18 2.66699 35.5 7.66699 52.5 15s31.833 17 44.5 29c18.667 17.333 31 34.833 37 52.5s10.667 37.5 14 59.5
c0.666992 1.33301 1.16699 3 1.5 5s0.5 4 0.5 6l-2 3c-22 -29.333 -47.5 -52.5 -76.5 -69.5s-62.5 -25.5 -100.5 -25.5c-8 0 -16.333 0.5 -25 1.5s-17.334 2.5 -26.001 4.5c-27.333 6 -54.166 16 -80.499 30s-48.5 30.667 -66.5 50c-26.667 27.333 -46.834 59 -60.501 95
s-21.167 73 -22.5 111v5.5v4.5c0 36.667 6.66699 71.5 20 104.5s31.333 62.5 54 88.5c26 28.667 57.167 51.5 93.5 68.5s75.166 25.5 116.499 25.5c36 0 69.667 -7.66699 101 -23s55.333 -39 72 -71l2 1v76v0zM486 275c0 46.667 -15.832 86 -47.499 118
s-71.167 48 -118.5 48c-21.333 0 -41.833 -4.33301 -61.5 -13s-36.834 -20.667 -51.501 -36c-15.333 -16 -26.5 -33.333 -33.5 -52s-10.5 -39 -10.5 -61c0 -48 15.833 -88 47.5 -120s71.5 -48 119.5 -48c44 0 81 16.5 111 49.5s45 70.833 45 113.5v1z" />
    <glyph glyph-name="h" unicode="h" horiz-adv-x="600" 
d="M54 0l0.00195312 739h133v-227c10.667 14 24.667 25.5 42 34.5s35.333 15.5 54 19.5c8 1.33301 15.833 2.5 23.5 3.5s15.167 1.5 22.5 1.5c4 0 8.16699 -0.166992 12.5 -0.5s8.5 -0.833008 12.5 -1.5c26 -3.33301 51.333 -11.333 76 -24s45.334 -28.667 62.001 -48
c25.333 -28.667 40.5 -59.5 45.5 -92.5s7.5 -68.167 7.5 -105.5v-299h-133v271v5.5v6.5c-0.666992 40 -7.33398 76.333 -20.001 109s-43.667 49 -93 49c-18.667 0 -35.834 -4 -51.501 -12s-28.834 -20 -39.501 -36c-6 -10 -10.5 -21.167 -13.5 -33.5
s-5.16699 -24.5 -6.5 -36.5c-0.666992 -8.66699 -1 -17.167 -1 -25.5v-24.5v-2.5v-2.5v-268h-133v0z" />
    <glyph glyph-name="i" unicode="i" horiz-adv-x="240" 
d="M54 0v554h133v-554h-133v0zM54 618v121h133v-121h-133v0z" />
    <glyph glyph-name="j" unicode="j" horiz-adv-x="260" 
d="M72 554h132.999v-520c0 -30 -3.33301 -58.667 -10 -86s-20.667 -52.666 -42 -75.999c-14 -15.333 -31.167 -27.833 -51.5 -37.5s-41.166 -15.834 -62.499 -18.501c-3.33301 0 -6.5 -0.166992 -9.5 -0.5s-6.16699 -0.5 -9.5 -0.5h-1.5h-1.5v129
c28 0.666992 44.167 9.5 48.5 26.5s6.5 35.833 6.5 56.5v4.5v5.5v517v0zM71.999 618v121h133v-121h-133v0z" />
    <glyph glyph-name="k" unicode="k" horiz-adv-x="580" 
d="M54 0v739h133v-446l178 261h157l-200 -271l233 -283h-178l-190 259v-259h-133v0z" />
    <glyph glyph-name="l" unicode="l" horiz-adv-x="240" 
d="M54 0v739h133v-739h-133v0z" />
    <glyph glyph-name="m" unicode="m" horiz-adv-x="940" 
d="M54 0v553.999h122v-51h2c8.66699 18 22.334 32.167 41.001 42.5s38.334 17.5 59.001 21.5c7.33301 1.33301 14.833 2.33301 22.5 3s14.834 1 21.501 1c28.667 0 56.167 -5.83301 82.5 -17.5s48.166 -28.834 65.499 -51.501c2.66699 -2.66699 5 -5.33398 7 -8.00098
s4 -5.66699 6 -9c2 3.33301 4.16699 6.5 6.5 9.5s4.83301 5.5 7.5 7.5c17.333 20.667 38.666 36.667 63.999 48s51.333 18 78 20c3.33301 0.666992 6.66602 1 9.99902 1h10c32.667 0 63.5 -5.16699 92.5 -15.5s54.5 -28.166 76.5 -53.499
c25.333 -27.333 41.166 -57.166 47.499 -89.499s9.5 -66.5 9.5 -102.5v-310h-133v295c0 6.66699 -0.166992 14 -0.5 22s-0.833008 16 -1.5 24c-1.33301 10.667 -3.33301 21.167 -6 31.5s-6.66699 19.5 -12 27.5c-7.33301 11.333 -17.666 20.5 -30.999 27.5
s-27.333 11.5 -42 13.5h-4.5h-5.5c-18.667 0 -36.167 -4 -52.5 -12s-29.5 -20 -39.5 -36c-6.66699 -10 -11.334 -21.333 -14.001 -34s-4.66699 -25.334 -6 -38.001c-0.666992 -8.66699 -1 -17 -1 -25v-24v-4.5v-4.5v-263h-133v295c0 17.333 -0.833008 34.5 -2.5 51.5
s-7.83398 33.5 -18.501 49.5c-9.33301 14.667 -21.833 25.834 -37.5 33.501s-32.167 11.5 -49.5 11.5c-43.333 0 -71.666 -14 -84.999 -42s-20.666 -58.667 -21.999 -92c-0.666992 -7.33301 -1 -14.666 -1 -21.999v-22v-263h-133v0z" />
    <glyph glyph-name="n" unicode="n" horiz-adv-x="600" 
d="M54 0l-0.00195312 553.999h123v-51h2c15.333 20.667 35.5 36.667 60.5 48s51.167 18 78.5 20h6h6h8c2.66699 0 5.33398 -0.333008 8.00098 -1c26.667 -2 52.5 -9 77.5 -21s46.5 -27.667 64.5 -47l7.5 -7.5c2.33301 -2.33301 4.5 -5.16602 6.5 -8.49902
c21.333 -30 34 -62 38 -96s6 -68.667 6 -104v-286h-133v261v26c0 9.33301 -0.333008 18.666 -1 27.999c-1.33301 14.667 -3.66602 28.834 -6.99902 42.501s-8.33301 26.167 -15 37.5c-8.66699 13.333 -20.5 24 -35.5 32s-30.5 12.667 -46.5 14h-2.5h-3.5h-6.5
c-2.33301 0 -4.83301 -0.333008 -7.5 -1c-15.333 -2 -30.333 -7.16699 -45 -15.5s-26 -19.166 -34 -32.499c-6.66699 -10.667 -11.667 -23.167 -15 -37.5s-5.33301 -28.833 -6 -43.5c-0.666992 -8.66699 -1 -17.334 -1 -26.001v-25v-5.5v-4.5v-250h-133v0z" />
    <glyph glyph-name="o" unicode="o" horiz-adv-x="640" 
d="M329 572c81.333 -0.666992 150 -30.167 206 -88.5s84 -127.833 84 -208.5c0 -82 -29 -151.333 -87 -208s-127.667 -85 -209 -85c-80 0 -148.833 28.667 -206.5 86s-86.5 126.333 -86.5 207c0 83.333 29.167 153.5 87.5 210.5s128.833 85.5 211.5 85.5v1zM323 442
c-4 -0.666992 -8 -1.16699 -12 -1.5s-8 -0.833008 -12 -1.5c-16.667 -3.33301 -33 -9.33301 -49 -18s-29.667 -19 -41 -31c-15.333 -15.333 -26.833 -32.833 -34.5 -52.5s-11.5 -40.5 -11.5 -62.5c0 -44.667 15.333 -83.167 46 -115.5s68.667 -48.5 114 -48.5
c47.333 0 86.333 15.667 117 47s46 70.333 46 117c0 45.333 -15.667 84.333 -47 117s-70 49 -116 49v1z" />
    <glyph glyph-name="p" unicode="p" horiz-adv-x="660" 
d="M54 -185l0.00195312 739h122v-72h2c20.667 30 46.167 52.333 76.5 67s64.166 22 101.499 22c40.667 0 77.167 -7 109.5 -21s62.833 -37 91.5 -69c25.333 -26.667 44.5 -57.667 57.5 -93s19.5 -72.666 19.5 -111.999c0 -78.667 -26 -147.334 -78 -206.001
s-118.667 -88 -200 -88c-34.667 0 -65.834 6 -93.501 18s-52.167 31.667 -73.5 59l-2 1v-245h-133v0zM342.002 442c-46.667 -0.666992 -85.501 -17.001 -116.501 -49.001s-46.5 -71 -46.5 -117c0 -24 4.16699 -46.5 12.5 -67.5s21.5 -39.5 39.5 -55.5
c10.667 -9.33301 23 -17.5 37 -24.5s28 -11.833 42 -14.5c4.66699 -1.33301 9.16699 -2.16602 13.5 -2.49902s8.83301 -0.5 13.5 -0.5c47.333 0 86.5 16 117.5 48s46.5 71.333 46.5 118c0 44 -15.167 82.333 -45.5 115s-68.166 49 -113.499 49v1z" />
    <glyph glyph-name="q" unicode="q" horiz-adv-x="660" 
d="M489 554l121.997 -0.000976562v-739h-133v245h-2c-20.667 -27.333 -45.167 -47.166 -73.5 -59.499s-59.5 -18.5 -93.5 -18.5c-82 0 -149 30.167 -201 90.5s-78 129.833 -78 208.5c0 38 7.33301 74.333 22 109s34.334 65 59.001 91
c25.333 27.333 54.833 49.166 88.5 65.499s69.834 24.5 108.501 24.5c36.667 0 70.834 -7.16699 102.501 -21.5s57.167 -37.166 76.5 -68.499l2 1v72v0zM326.997 441.999c-46.667 -0.666992 -85.667 -16.499 -117 -47.499s-47 -69.833 -47 -116.5
c0 -48 15.167 -87.833 45.5 -119.5s69.833 -47.5 118.5 -47.5c45.333 0 83 16.5 113 49.5s45 71.5 45 115.5c0 43.333 -15.333 81.666 -46 114.999s-68 50 -112 50v1z" />
    <glyph glyph-name="r" unicode="r" horiz-adv-x="320" 
d="M54 0l-0.000976562 553.999h121v-50h2c14.667 22.667 31.334 39.5 50.001 50.5s41.667 16.5 69 16.5l10 1v-129c-4.66699 -0.666992 -9.33398 -1.16699 -14.001 -1.5s-9.33398 -1.16602 -14.001 -2.49902c-9.33301 -2 -18.666 -4.83301 -27.999 -8.5
s-17.666 -8.5 -24.999 -14.5c-16.667 -13.333 -27.167 -28.833 -31.5 -46.5s-6.5 -36.5 -6.5 -56.5v-7.5v-7.5v-298h-133v0z" />
    <glyph glyph-name="s" unicode="s" horiz-adv-x="440" 
d="M405 402l-129.997 -0.000976562c-2 12.667 -7.83301 22.334 -17.5 29.001s-20.834 10 -33.501 10c-14.667 0 -27 -3.83301 -37 -11.5s-15 -19.167 -15 -34.5v0v0v-1v0c-0.666992 -12.667 4 -22.5 14 -29.5s20.667 -12.5 32 -16.5l15.5 -4
c5 -1.33301 9.5 -2.66602 13.5 -3.99902c44.667 -13.333 84.667 -30.833 120 -52.5s53 -60.167 53 -115.5c0 -26 -4.66699 -50.167 -14 -72.5s-23.333 -42.5 -42 -60.5c-14.667 -13.333 -31.834 -24.666 -51.501 -33.999s-39.834 -16 -60.501 -20l-16 -2
c-5.33301 -0.666992 -10.666 -1 -15.999 -1c-56.667 0 -103.834 17.667 -141.501 53s-57.5 81.333 -59.5 138l136 1c3.33301 -18 11 -33 23 -45s27.667 -18 47 -18c16 0 30.333 4.5 43 13.5s19 22.167 19 39.5c0 16.667 -6.16699 29.5 -18.5 38.5
s-26.166 16.167 -41.499 21.5c-6 2.66699 -11.833 4.83398 -17.5 6.50098s-11.167 3.5 -16.5 5.5c-4.66699 1.33301 -9 2.66602 -13 3.99902l-12 4l-21 8c-6.66699 2.66699 -13.334 5.66699 -20.001 9c-5.33301 2.66699 -10.833 5.83398 -16.5 9.50098
s-11.5 8.16699 -17.5 13.5c-18 15.333 -31.5 32.666 -40.5 51.999s-13.5 40.666 -13.5 63.999c0 51.333 19 92.666 57 123.999s81.333 47 130 47c46 0 87.333 -16.5 124 -49.5s55 -73.167 55 -120.5v1z" />
    <glyph glyph-name="t" unicode="t" horiz-adv-x="300" 
d="M74 0v436h-65v118h65v185h133v-185h80v-118h-80v-436h-133v0z" />
    <glyph glyph-name="u" unicode="u" horiz-adv-x="600" 
d="M414 554l132.999 -0.00195312v-554h-122v59h-2c-14 -27.333 -33.333 -47 -58 -59s-52.334 -18 -83.001 -18c-32.667 0 -64.167 6.16699 -94.5 18.5s-57.166 31.5 -80.499 57.5c-24.667 26.667 -39.667 54.834 -45 84.501s-8 62.167 -8 97.5v314h133v-272
c0 -8.66699 0.166992 -17.5 0.5 -26.5s0.833008 -18.167 1.5 -27.5c1.33301 -10.667 3.16602 -21.167 5.49902 -31.5s5.5 -19.833 9.5 -28.5c9.33301 -18 22.333 -32 39 -42s35.334 -15 56.001 -15c44.667 0 74.334 14.833 89.001 44.5s23 62.167 25 97.5
c0.666992 4.66699 1 9.33398 1 14.001v14v273v0z" />
    <glyph glyph-name="v" unicode="v" horiz-adv-x="560" 
d="M225 0l-224 554h148l129 -364l127 364h148l-224 -554h-104v0z" />
    <glyph glyph-name="w" unicode="w" horiz-adv-x="800" 
d="M210 0l-200 554h141l103 -338l91 338h105l92 -338l102 338h141l-201 -554h-82l-105 359l-105 -359h-82v0z" />
    <glyph glyph-name="x" unicode="x" horiz-adv-x="560" 
d="M1 0l197 286l-172 268h154l97 -152l94 152h155l-171 -268l198 -286h-164l-112 179l-112 -179h-164v0z" />
    <glyph glyph-name="y" unicode="y" horiz-adv-x="580" 
d="M107 -185l102 237l-203 502h151l127 -355l133 355h151l-318 -739h-143v0z" />
    <glyph glyph-name="z" unicode="z" horiz-adv-x="460" 
d="M20 0v118l246 318h-218v118h377v-118l-246 -318h263v-118h-422v0z" />
    <glyph glyph-name="braceleft" unicode="{" horiz-adv-x="340" 
d="M222 179l0.00195312 -190.996c0 -31.333 5.5 -56 16.5 -74s32.167 -31.667 63.5 -41h-8h-8c-16.667 0 -32.834 0.333008 -48.501 1s-31.167 4 -46.5 10c-4.66699 1.33301 -9.5 3.33301 -14.5 6s-10.167 5.66699 -15.5 9c-18.667 12.667 -30.334 28.5 -35.001 47.5
s-7 38.833 -7 59.5v191c0 9.33301 -0.166992 18 -0.5 26s-2.16602 16 -5.49902 24c-1.33301 4 -3.16602 8.16699 -5.49902 12.5s-5.5 8.83301 -9.5 13.5c-8 9.33301 -17.167 16.666 -27.5 21.999s-21.5 9.33301 -33.5 12c9.33301 1.33301 18.666 4 27.999 8
s17.666 9 24.999 15c14.667 11.333 23.167 24.166 25.5 38.499s3.5 29.833 3.5 46.5v1.5v1.5v170v18c0 6.66699 0.333008 13.334 1 20.001c1.33301 14 4.16602 27.833 8.49902 41.5s11.5 25.5 21.5 35.5c12.667 12 27.334 20.333 44.001 25s33.667 7.66699 51 9h13h13h16h15
c-30 -8.66699 -50.833 -22.334 -62.5 -41.001s-17.5 -43 -17.5 -73v-177c0 -36.667 -5.16699 -66.834 -15.5 -90.501s-35.166 -39.834 -74.499 -48.501c37.333 -8.66699 61.666 -23.5 72.999 -44.5s17 -49.167 17 -84.5v1z" />
    <glyph glyph-name="bar" unicode="|" horiz-adv-x="600" 
d="M243 0v739h119v-739h-119v0z" />
    <glyph glyph-name="braceright" unicode="}" horiz-adv-x="340" 
d="M118 446l-0.00292969 177.997c0 29.333 -5.83301 53.333 -17.5 72s-32.5 32.334 -62.5 41.001h5.5h5.5c3.33301 0 7 0.166992 11 0.5s7.66699 0.166016 11 -0.500977h8h8c19.333 -0.666992 38 -3.16699 56 -7.5s33.667 -13.166 47 -26.499
c10 -10 17.167 -21.833 21.5 -35.5s7.16602 -27.5 8.49902 -41.5c0.666992 -6.66699 1 -13.334 1 -20.001v-19v-168c0 -18 1.33301 -34.333 4 -49s11.334 -28 26.001 -40c7.33301 -6 15.5 -11 24.5 -15s18.167 -6.66699 27.5 -8
c-11.333 -2.66699 -22.166 -6.66699 -32.499 -12s-19.5 -12.666 -27.5 -21.999c-4 -4.66699 -7.33301 -9.16699 -10 -13.5s-4.66699 -8.5 -6 -12.5c-3.33301 -8 -5.16602 -16 -5.49902 -24s-0.5 -17 -0.5 -27v-189c0 -21.333 -2.16699 -41.5 -6.5 -60.5
s-16.166 -34.833 -35.499 -47.5c-2.66699 -2 -5.16699 -3.66699 -7.5 -5s-4.83301 -2.66602 -7.5 -3.99902c-17.333 -8.66699 -35 -13.667 -53 -15s-37 -2 -57 -2h-8h-8c31.333 9.33301 52.5 23 63.5 41s16.5 42.667 16.5 74v191c0 34.667 5.83301 62.5 17.5 83.5
s35.834 35.833 72.501 44.5c-38.667 8.66699 -63.334 24.834 -74.001 48.501s-16 53.5 -16 89.5v1z" />
    <glyph glyph-name="asciitilde" unicode="~" horiz-adv-x="600" 
d="M491 421l64 -73.002c-2 -4 -4.16699 -7.66699 -6.5 -11s-4.5 -7 -6.5 -11c-15.333 -24 -32.833 -46 -52.5 -66s-45.834 -30 -78.501 -30c-13.333 0 -26 1.66699 -38 5s-24 7.33301 -36 12l-9 3.5l-9 3.5l-40 18c-3.33301 0.666992 -6.83301 1.83398 -10.5 3.50098
l-11.5 5.5c-4 1.33301 -8 2.83301 -12 4.5s-8.33301 3.16699 -13 4.5c-4.66699 2 -9.66699 3.5 -15 4.5s-10.333 1.5 -15 1.5c-18 0 -32.667 -6 -44 -18s-21 -25.333 -29 -40c-2.66699 -4 -5.16699 -8 -7.5 -12s-4.5 -8 -6.5 -12l-64 75l6 10.5
c2 3.66699 4.33301 7.5 7 11.5c15.333 25.333 33.833 48.5 55.5 69.5s48.5 31.5 80.5 31.5c10.667 0 21.334 -1.16699 32.001 -3.5s21.667 -5.5 33 -9.5c8 -2.66699 16.333 -5.83398 25 -9.50098l25 -10.5l52.5 -22.5c16.333 -7 30.5 -10.5 42.5 -10.5
c16 0 29 5.33301 39 16s19 22.334 27 35.001c2 3.33301 4.16699 6.66602 6.5 9.99902l6.5 9c0 0.666992 0.166992 1.33398 0.5 2.00098s0.833008 1.33398 1.5 2.00098v1z" />
    <glyph glyph-name="endash" unicode="&#xa1;" 
d="M72 366h133v-551h-133v551v0zM72 554h133v-127h-133v127v0z" />
    <glyph glyph-name="cent" unicode="&#xa2;" horiz-adv-x="560" 
d="M343 39l-124.998 0.00195312v109c-46.667 7.33301 -86 30.833 -118 70.5s-51.333 82.5 -58 128.5c-1.33301 5.33301 -2.16602 11 -2.49902 17s-0.5 11.667 -0.5 17v2v2c0.666992 51.333 17.667 99.166 51 143.499s76 71.833 128 82.5v102h125v-101
c41.333 -10.667 77.5 -31.5 108.5 -62.5s50.833 -67.167 59.5 -108.5l-140 1c-6.66699 10.667 -15.834 19.667 -27.501 27s-24.167 12.333 -37.5 15c-4.66699 1.33301 -9.33398 2.33301 -14.001 3s-9.33398 1 -14.001 1c-30.667 0 -56.167 -11 -76.5 -33
s-30.5 -48 -30.5 -78c0 -31.333 10.667 -57.166 32 -77.499s47.333 -30.5 78 -30.5c18 0 33.5 3.66699 46.5 11s25.5 16.666 37.5 27.999l146 1c-15.333 -40 -36.5 -74.333 -63.5 -103s-61.833 -48.334 -104.5 -59.001v-108v0z" />
    <glyph glyph-name="sterling" unicode="&#xa3;" horiz-adv-x="560" 
d="M40 0v125.994h139c4.66699 6.66699 8.33398 14.5 11.001 23.5s4.66699 18.167 6 27.5c0 2.66699 0.166992 5.66699 0.5 9s0.5 6.33301 0.5 9c0 24 -5.16699 44.833 -15.5 62.5s-23.833 34.834 -40.5 51.501l-141 1v125h56c-3.33301 8 -6.33301 16.333 -9 25
s-4.33398 17.334 -5.00098 26.001c-0.666992 4 -1.16699 8.33301 -1.5 13s-0.5 9 -0.5 13c0 65.333 23.667 121.666 71 168.999s103.333 71 168 71c35.333 0 67.333 -6.83301 96 -20.5s54.667 -33.167 78 -58.5l1.5 -1.5l1.5 -1.5
c9.33301 -11.333 18.5 -24.166 27.5 -38.499s16.167 -29.166 21.5 -44.499c2.66699 -8 4.83398 -15.667 6.50098 -23s2.5 -14.666 2.5 -21.999v-0.5v-0.5v-0.5v-0.5l-134 1c-4 22.667 -15.833 41.834 -35.5 57.501s-41.167 23.5 -64.5 23.5c-32 0 -57.833 -11.333 -77.5 -34
s-29.5 -49.667 -29.5 -81c0 -13.333 2.33301 -26.166 7 -38.499s11.334 -23.833 20.001 -34.5l208 1v-125h-108c3.33301 -6 6.16602 -11.667 8.49902 -17s4.5 -10.666 6.5 -15.999c5.33301 -14.667 9.16602 -29.167 11.499 -43.5s3.5 -29.833 3.5 -46.5
c0 -10.667 -0.833008 -21.167 -2.5 -31.5s-4.16699 -20.5 -7.5 -30.5h10c29.333 -0.666992 53.333 8.33301 72 27s28 42.667 28 72c0 7.33301 -0.666992 14.333 -2 21s-3 13 -5 19c0 1.33301 -0.166992 2.66602 -0.5 3.99902s-0.833008 2.66602 -1.5 3.99902l132 1
c2 -4.66699 3.66699 -9.33398 5 -14.001s2.33301 -9.33398 3 -14.001c0.666992 -4 1.16699 -8.16699 1.5 -12.5s0.5 -8.16602 0.5 -11.499c0 -6 -0.333008 -11.833 -1 -17.5l-2 -17.5c-4.66699 -25.333 -13.667 -50.166 -27 -74.499s-29.666 -44.166 -48.999 -59.499
c-26.667 -22 -53.834 -36.167 -81.501 -42.5s-58.167 -9.5 -91.5 -9.5h-271v0z" />
    <glyph glyph-name="Idieresis" unicode="&#xa4;" horiz-adv-x="560" 
d="M27 227l44.001 43.998c-4 6.66699 -7.83301 13.5 -11.5 20.5s-6.83398 13.833 -9.50098 20.5c-5.33301 13.333 -9.33301 26.833 -12 40.5s-4 28.834 -4 45.501c0 24.667 3 47.5 9 68.5s15.333 41.833 28 62.5l-44 44l79 80l44 -44c14 8 29.167 15 45.5 21
s33.166 10.333 50.499 13c5.33301 1.33301 10.833 2.16602 16.5 2.49902s11.167 0.5 16.5 0.5c23.333 0 46.5 -3.16699 69.5 -9.5s44.5 -15.833 64.5 -28.5l44 45l77 -80l-44 -43c12.667 -20.667 22.167 -41.667 28.5 -63s9.5 -44 9.5 -68
c0 -4 -0.166992 -7.83301 -0.5 -11.5s-0.5 -7.5 -0.5 -11.5c-2 -18.667 -6 -37.167 -12 -55.5s-14.333 -35.166 -25 -50.499l44 -43l-77 -79l-44 44c-20 -12.667 -40.667 -22.5 -62 -29.5s-43.666 -10.5 -66.999 -10.5c-24 0 -47.333 3.33301 -70 10s-44 16.334 -64 29.001
l-44 -43l-79 79v0zM281.001 276.998c35.333 -0.666992 64.666 11.333 87.999 36s35 53.334 35 86.001s-11.667 61.334 -35 86.001s-52.666 37 -87.999 37c-34.667 0 -63.834 -12.333 -87.501 -37s-35.5 -53.334 -35.5 -86.001s11.833 -61.334 35.5 -86.001
s52.834 -37 87.501 -37v1z" />
    <glyph glyph-name="ae" unicode="&#xa5;" horiz-adv-x="560" 
d="M208 0v186h-191v88h191l-56 106h-142v88h95l-140 271h150l161 -341l161 341h152l-141 -271h95v-88h-141l-57 -106h190v-88h-190v-186h-137v0z" />
    <glyph glyph-name="brokenbar" unicode="&#xa6;" 
 />
    <glyph glyph-name="section" unicode="&#xa7;" horiz-adv-x="560" 
d="M499 580l-125.003 0.000976562c-2 24 -11.833 40.833 -29.5 50.5s-37.5 14.5 -59.5 14.5h-4.5h-5.5c-14.667 -1.33301 -28 -5.33301 -40 -12s-18 -18.667 -18 -36v0v0v-1v0c-0.666992 -12.667 3.83301 -24 13.5 -34s20.5 -18.667 32.5 -26l14 -8
c4.66699 -2.66699 9 -5 13 -7l143 -71c14 -8 27 -16.333 39 -25s22.333 -19.667 31 -33c6 -9.33301 11 -19.333 15 -30s7 -21.667 9 -33c0.666992 -4 1.16699 -8.16699 1.5 -12.5s0.5 -8.5 0.5 -12.5c0 -27.333 -7.16699 -53.5 -21.5 -78.5s-32.833 -45.5 -55.5 -61.5
c18 -18 30.667 -36.667 38 -56s11 -41.666 11 -66.999c0 -58.667 -22.167 -103.667 -66.5 -135s-93.5 -47 -147.5 -47c-62.667 0 -116.167 19.167 -160.5 57.5s-67.166 89.166 -68.499 152.499l132 1v-2.5v-1.5v-1.5v-0.5v-2.5v-2.5c0 -25.333 9.5 -44.666 28.5 -57.999
s40.833 -20 65.5 -20h1.5h1.5h0.5h1.5h1.5h1.5c3.33301 0 7 0.166992 11 0.5s8 0.833008 12 1.5c15.333 3.33301 29.333 9.66602 42 18.999s19 22.333 19 39c0 18 -6 32.167 -18 42.5s-25.333 19.166 -40 26.499c-3.33301 2 -6.66602 3.83301 -9.99902 5.5
s-6.66602 3.16699 -9.99902 4.5c0 0.666992 -0.333008 1.16699 -1 1.5s-1.33398 0.5 -2.00098 0.5l-145 77c-34.667 18 -61.667 39.333 -81 64s-29 57.334 -29 98.001c0 31.333 7 59.333 21 84s34 45.334 60 62.001c-2 3.33301 -4.16699 6.66602 -6.5 9.99902
s-4.16602 6.66602 -5.49902 9.99902c-6 11.333 -10.333 23 -13 35s-4 25 -4 39c0 56.667 21 98.5 63 125.5s88.333 40.5 139 40.5c58.667 0 106.5 -16.5 143.5 -49.5s57.5 -79.167 61.5 -138.5v1zM225.997 302.001l141.997 -72.9951c11.333 6.66699 21 15.667 29 27
s12 23.666 12 36.999s-4.83301 24.333 -14.5 33s-20.167 16 -31.5 22l-12.5 6c-4.33301 2 -8.16602 4 -11.499 6l-141 74c-0.666992 -1.33301 -1.5 -2.33301 -2.5 -3s-1.83301 -1.33398 -2.5 -2.00098c-8.66699 -6.66699 -16.667 -14.834 -24 -24.501
s-11.666 -19.834 -12.999 -30.501v-3.5v-2.5c0 -11.333 4.5 -21.333 13.5 -30s18.833 -16.334 29.5 -23.001c4.66699 -2.66699 9.33398 -5.16699 14.001 -7.5l13 -6.5v1z" />
    <glyph glyph-name="dieresis" unicode="&#xa8;" horiz-adv-x="500" 
d="M74 620v133h133v-133h-133v0zM284 620v133h133v-133h-133v0z" />
    <glyph glyph-name="copyright" unicode="&#xa9;" horiz-adv-x="740" 
d="M374 -18c-106.667 0 -197.5 37.5 -272.5 112.5s-112.5 165.833 -112.5 272.5s37.5 197.5 112.5 272.5s165.833 112.5 272.5 112.5c106 0 196.667 -37.5 272 -112.5s113 -165.833 113 -272.5s-37.667 -197.5 -113 -272.5s-166 -112.5 -272 -112.5v0zM374 54
c85.333 -0.666992 158.833 29.667 220.5 91s92.5 135.333 92.5 222s-30.833 160.5 -92.5 221.5s-135.167 91.5 -220.5 91.5c-86.667 0 -160.667 -30.5 -222 -91.5s-92 -134.833 -92 -221.5s30.667 -160.667 92 -222s135.333 -92 222 -92v1zM483 298.001l86.9971 0.00195312
c-4.66699 -46.667 -24.5 -83.334 -59.5 -110.001s-74.833 -40 -119.5 -40c-64.667 0 -116.5 21.333 -155.5 64s-58.5 95.334 -58.5 158.001c0 63.333 18.833 116.166 56.5 158.499s89.167 63.5 154.5 63.5c46.667 0 86.667 -12.833 120 -38.5s54 -61.5 62 -107.5l-87 1
c-4.66699 23.333 -15.834 41.666 -33.501 54.999s-38.5 20 -62.5 20c-41.333 0 -72.166 -15.5 -92.499 -46.5s-30.5 -65.167 -30.5 -102.5v-6.5v-6.5c2.66699 -35.333 14.834 -67.833 36.501 -97.5s51.834 -44.5 90.501 -44.5c22.667 0 43.334 7.33301 62.001 22
s28.667 33.667 30 57v1z" />
    <glyph glyph-name="ellipsis" unicode="&#xaa;" horiz-adv-x="360" 
d="M31 316v63h311v-63h-311v0zM342 744l-0.000976562 -297.999h-66v41h-2c-10.667 -16.667 -24.667 -29.167 -42 -37.5s-35.666 -12.833 -54.999 -13.5h-2.5h-3.5c-44 0 -78.833 16 -104.5 48s-38.5 68.667 -38.5 110c0 43.333 13.667 80.5 41 111.5s63.333 46.5 108 46.5
c20 0 38.5 -4.33301 55.5 -13s30.833 -21.334 41.5 -38.001l2 1v42h66v0zM188.999 506.001c25.333 -0.666992 45.832 7.66699 61.499 25s23.5 38.333 23.5 63c0 25.333 -8 46.5 -24 63.5s-36.667 25.5 -62 25.5c-26.667 0 -48.167 -8.83301 -64.5 -26.5
s-24.5 -39.5 -24.5 -65.5c0 -24.667 8.83301 -45.167 26.5 -61.5s38.834 -24.5 63.501 -24.5v1z" />
    <glyph glyph-name="ydieresis" unicode="&#xab;" horiz-adv-x="460" 
d="M175 136l-139 131v101l139 130v-123l-67 -57l67 -59v-123v0zM388 136l-139 131v101l139 130v-123l-67 -57l67 -59v-123v0z" />
    <glyph glyph-name="emdash" unicode="&#xac;" 
 />
    <glyph glyph-name="uni00AD" unicode="&#xad;" horiz-adv-x="500" 
 />
    <glyph glyph-name="registered" unicode="&#xae;" horiz-adv-x="740" 
d="M374 -18c-106.667 0 -197.5 37.5 -272.5 112.5s-112.5 165.833 -112.5 272.5s37.5 197.5 112.5 272.5s165.833 112.5 272.5 112.5c106 0 196.667 -37.5 272 -112.5s113 -165.833 113 -272.5s-37.667 -197.5 -113 -272.5s-166 -112.5 -272 -112.5v0zM374 54
c86 -0.666992 159.667 29.667 221 91s92 135.333 92 222s-30.667 160.5 -92 221.5s-135 91.5 -221 91.5c-86.667 0 -160.667 -30.5 -222 -91.5s-92 -134.833 -92 -221.5s30.667 -160.667 92 -222s135.333 -92 222 -92v1zM464 334.001l101 -176h-94l-93 176h-82v-176h-81v416
h201c7.33301 -0.666992 15 -1.16699 23 -1.5s16 -0.833008 24 -1.5c12 -0.666992 23.667 -2.5 35 -5.5s21.666 -7.16699 30.999 -12.5c18.667 -12.667 31.5 -28.5 38.5 -47.5s10.5 -39.167 10.5 -60.5c0 -38 -9.66699 -65.5 -29 -82.5s-47.666 -26.833 -84.999 -29.5v1z
M296 396.001h122.999c1.33301 -0.666992 2.5 -1 3.5 -1h2.5c21.333 0 38.5 4.16699 51.5 12.5s19.5 24.833 19.5 49.5c0 21.333 -7 35.5 -21 42.5s-29.667 11.167 -47 12.5c-5.33301 0.666992 -10.666 1 -15.999 1h-15l-101 1v-118v0z" />
    <glyph glyph-name="glyph263" unicode="&#xaf;" 
 />
    <glyph glyph-name="glyph264" unicode="&#xb0;" 
 />
    <glyph glyph-name="mu" unicode="&#xb1;" horiz-adv-x="600" 
d="M51 0v116h504v-116h-504v0zM245 433v137h116v-137h194v-116h-194v-143h-116v143h-194v116h194v0z" />
    <glyph glyph-name="uni00B2" unicode="&#xb2;" 
 />
    <glyph glyph-name="uni00B3" unicode="&#xb3;" 
 />
    <glyph glyph-name="acute" unicode="&#xb4;" horiz-adv-x="420" 
d="M124 613l-50 92l225 133l53 -104l-228 -121v0z" />
    <glyph glyph-name="oslash" unicode="&#xb5;" horiz-adv-x="576" 
d="M547 0l-121.999 -0.000976562v59h-2c-14 -27.333 -33.333 -47 -58 -59s-52.334 -18 -83.001 -18c-16.667 0 -32.834 1.5 -48.501 4.5s-31.167 7.5 -46.5 13.5v-185h-133v739h133v-272c0 -8.66699 0.166992 -17.5 0.5 -26.5s0.833008 -18.167 1.5 -27.5
c1.33301 -10.667 3.16602 -21.167 5.49902 -31.5s5.5 -19.833 9.5 -28.5c9.33301 -18 22.333 -32 39 -42s35.334 -15 56.001 -15c44.667 0 74.334 14.833 89.001 44.5s23 62.167 25 97.5c0.666992 4.66699 1 9.33398 1 14.001v14v273h133v-554v0z" />
    <glyph glyph-name="paragraph" unicode="&#xb6;" horiz-adv-x="600" 
d="M342 632v-760.001h-100v458c-0.666992 -0.666992 -1.16699 -1 -1.5 -1h-0.5h-1.5h-1.5c-54.667 0 -101.667 20.333 -141 61s-59 88.334 -59 143.001c0 30.667 5.83301 59 17.5 85s29.167 49.333 52.5 70c7.33301 6 14.333 11.333 21 16s13.667 8.66699 21 12
c19.333 10 39.333 16 60 18s43.667 3 69 3l249 1v-866h-103v760h-82v0z" />
    <glyph glyph-name="glyph265" unicode="&#xb7;" 
 />
    <glyph glyph-name="bullet" unicode="&#xb8;" horiz-adv-x="340" 
d="M109 0l53.0039 0.000976562l-20 -57c1.33301 0 2.66602 0.166992 3.99902 0.5s2.66602 0.833008 3.99902 1.5l12.5 2c4.33301 0.666992 8.5 1 12.5 1c2.66699 0 5.5 -0.166992 8.5 -0.5s6.16699 -0.833008 9.5 -1.5c8.66699 -2.66699 17.167 -6.33398 25.5 -11.001
s15.833 -10 22.5 -16c10 -9.33301 17.333 -20.166 22 -32.499s7 -25.5 7 -39.5c0 -27.333 -9.66699 -50.5 -29 -69.5s-43 -28.5 -71 -28.5h-5.5c-1.66699 0 -3.5 0.333008 -5.5 1c-20.667 2 -39.834 10.667 -57.501 26s-26.834 33.666 -27.501 54.999h50
c1.33301 -8 5.5 -14.5 12.5 -19.5s14.5 -8.5 22.5 -10.5c2 -0.666992 4.16699 -1.16699 6.5 -1.5s4.5 -0.5 6.5 -0.5c12.667 0 23.167 4.83301 31.5 14.5s12.833 20.167 13.5 31.5v1.5v1.5c0 14.667 -4.66699 26.667 -14 36s-21 14 -35 14c-8.66699 0 -17 -2.5 -25 -7.5
s-14 -11.5 -18 -19.5l-51 13l35 116v0z" />
    <glyph glyph-name="uni00B9" unicode="&#xb9;" 
 />
    <glyph glyph-name="Agrave" unicode="&#xba;" horiz-adv-x="360" 
d="M31 316v63h307v-63h-307v0zM184 753c43.333 -0.666992 79.666 -15.8311 108.999 -45.498s44 -66.167 44 -109.5c0 -42.667 -14.833 -78.834 -44.5 -108.501s-65.834 -44.5 -108.501 -44.5c-41.333 0 -77.166 15.167 -107.499 45.5s-45.5 66.166 -45.5 107.499
c0 42 14.833 78.167 44.5 108.5s65.834 45.5 108.501 45.5v1zM184 686.003c-23.333 -0.666992 -43 -9.66797 -59 -27.001s-24 -37.666 -24 -60.999c0 -22.667 8 -42.5 24 -59.5s35.667 -25.5 59 -25.5c24.667 0 45 8.16699 61 24.5s24 36.5 24 60.5
s-8.16699 44.5 -24.5 61.5s-36.5 25.5 -60.5 25.5v1z" />
    <glyph glyph-name="Ydieresis" unicode="&#xbb;" horiz-adv-x="460" 
d="M73 136v123l68 59l-68 57v123l139 -130v-101l-139 -131v0zM286 136v123l68 59l-68 57v123l139 -130v-101l-139 -131v0z" />
    <glyph glyph-name="onequarter" unicode="&#xbc;" 
 />
    <glyph glyph-name="glyph243" unicode="&#xbd;" horiz-adv-x="840" 
d="M205 0l306 739h95l-306 -739h-95v0zM519 0l0.000976562 75.999l166 142c14.667 12 28 25 40 39s18 31 18 51c0 18.667 -6.33301 34.167 -19 46.5s-29.334 18.5 -50.001 18.5c-24 0 -42.333 -7.66699 -55 -23s-19 -33.333 -19 -54v-3.5v-3.5l-86 1v17
c0 38.667 15.167 72.334 45.5 101.001s66.833 43 109.5 43c45.333 0 83.5 -14 114.5 -42s46.5 -63 46.5 -105c0 -18 -3.5 -34.833 -10.5 -50.5s-16.167 -30.5 -27.5 -44.5l-60 -58l-92 -75h190v-76h-311v0zM154.001 295.999v367h-60v76h147v-443h-87v0z" />
    <glyph glyph-name="threequarters" unicode="&#xbe;" 
 />
    <glyph glyph-name="oe" unicode="&#xbf;" horiz-adv-x="560" 
d="M233 366l132.999 0.00390625v-29c0 -7.33301 -0.166992 -14.333 -0.5 -21s-1.16602 -13.334 -2.49902 -20.001c-1.33301 -13.333 -3.83301 -26.5 -7.5 -39.5s-8.5 -25.5 -14.5 -37.5c-7.33301 -15.333 -15 -28.333 -23 -39s-17 -20.667 -27 -30l-14 -12l-15 -13
c-16 -12.667 -30 -26.334 -42 -41.001s-18 -33.334 -18 -56.001c0 -28.667 8.33301 -51.5 25 -68.5s39.667 -25.5 69 -25.5c30.667 0 53.334 9.33301 68.001 28s23 41.667 25 69l133 1c-0.666992 -5.33301 -1.16699 -10.333 -1.5 -15s-0.833008 -9.33398 -1.5 -14.001
c-3.33301 -20 -8.33301 -40 -15 -60s-16.667 -38 -30 -54c-16 -21.333 -36.833 -39.333 -62.5 -54s-52.167 -24.667 -79.5 -30c-7.33301 -1.33301 -14.5 -2.33301 -21.5 -3s-13.833 -1 -20.5 -1h-8c-2.66699 0 -5.66699 0.333008 -9 1c-24.667 2 -48.834 8.5 -72.501 19.5
s-44.167 25.167 -61.5 42.5c-24 22.667 -41.667 48.834 -53 78.501s-17 60.5 -17 92.5c0 37.333 10.167 69.833 30.5 97.5s43.833 53.167 70.5 76.5l12 11.5l11 10.5c13.333 13.333 23.5 27.666 30.5 42.999s10.167 34.333 9.5 57v35v0zM365.999 554.004v-127h-133v127h133
v0z" />
    <glyph glyph-name="currency" unicode="&#xc0;" horiz-adv-x="740" 
d="M7 0l308 739h107l311 -739h-151l-80 191h-262l-82 -191h-151v0zM290 324h158l-79 224l-79 -224v0zM234 923l57 102l222 -135l-53 -92l-226 125v0z" />
    <glyph glyph-name="breve" unicode="&#xc1;" horiz-adv-x="740" 
d="M7 0l308 739h107l311 -739h-151l-80 191h-262l-82 -191h-151v0zM290 324h158l-79 224l-79 -224v0zM284 798l-50 92l225 133l53 -104l-228 -121v0z" />
    <glyph glyph-name="tilde" unicode="&#xc2;" horiz-adv-x="740" 
d="M7 0l308 739h107l311 -739h-151l-80 191h-262l-82 -191h-151v0zM290 324h158l-79 224l-79 -224v0zM174 805l148 138h105l146 -138h-145l-54 64l-55 -64h-145v0z" />
    <glyph glyph-name="guilsinglleft" unicode="&#xc3;" horiz-adv-x="740" 
d="M7 0l308 739h107l311 -739h-151l-80 191h-262l-82 -191h-151v0zM290 324h158l-79 224l-79 -224v0zM253 809l-49.0039 88c11.333 10 24.333 18 39 24s29.667 9.66699 45 11c2.66699 0.666992 5.33398 1 8.00098 1h8c12 0 23 -1.5 33 -4.5s19.667 -6.16699 29 -9.5l26 -9.5
c8 -3 16 -4.5 24 -4.5c13.333 0 25.833 2.5 37.5 7.5s22.167 11.833 31.5 20.5l50 -84c-1.33301 -2 -2.5 -3.5 -3.5 -4.5s-2.16699 -1.83301 -3.5 -2.5c-13.333 -11.333 -27 -20.5 -41 -27.5s-30 -10.5 -48 -10.5c-11.333 0 -22 1.33301 -32 4s-19.667 5.66699 -29 9
c-1.33301 0.666992 -2.66602 1.16699 -3.99902 1.5s-2.66602 0.833008 -3.99902 1.5c-8.66699 2.66699 -17 5 -25 7s-16.667 3 -26 3c-12 0 -23.667 -1.83301 -35 -5.5s-21.666 -9.16699 -30.999 -16.5v1z" />
    <glyph glyph-name="Adieresis" unicode="&#xc4;" horiz-adv-x="740" 
d="M7 0l308 739h107l311 -739h-151l-80 191h-262l-82 -191h-151v0zM290 324h158l-79 224l-79 -224v0zM194 805v133h133v-133h-133v0zM404 805v133h133v-133h-133v0z" />
    <glyph glyph-name="Aring" unicode="&#xc5;" horiz-adv-x="740" 
d="M7 0l308 739h107l311 -739h-151l-80 191h-262l-82 -191h-151v0zM290 324h158l-79 224l-79 -224v0zM367 1011c28.667 -0.666992 53 -11 73 -31s30 -44.333 30 -73s-10 -53 -30 -73s-44.333 -30 -73 -30s-53 10 -73 30s-30 44.333 -30 73s10 53 30 73s44.333 30 73 30v1z
M367 871c10 -0.666992 18.667 2.5 26 9.5s11 15.833 11 26.5c0 10 -3.66699 18.667 -11 26s-16 11 -26 11s-18.667 -3.66699 -26 -11s-11 -16 -11 -26s3.66699 -18.667 11 -26s16 -11 26 -11v1z" />
    <glyph glyph-name="Oslash" unicode="&#xc6;" horiz-adv-x="900" 
d="M17 0l488 739h338v-133h-219v-170h208v-133h-208v-170h219v-133h-356v191h-196l-115 -191h-159v0zM372 324h115v190h-2l-113 -190v0z" />
    <glyph glyph-name="Ccedilla" unicode="&#xc7;" horiz-adv-x="780" 
d="M329 0l53.0039 0.000976562l-20 -57c1.33301 0 2.66602 0.166992 3.99902 0.5s2.66602 0.833008 3.99902 1.5l12.5 2c4.33301 0.666992 8.5 1 12.5 1c2.66699 0 5.5 -0.166992 8.5 -0.5s6.16699 -0.833008 9.5 -1.5c8.66699 -2.66699 17.167 -6.33398 25.5 -11.001
s15.833 -10 22.5 -16c10 -9.33301 17.333 -20.166 22 -32.499s7 -25.5 7 -39.5c0 -27.333 -9.66699 -50.5 -29 -69.5s-43 -28.5 -71 -28.5h-5.5c-1.66699 0 -3.5 0.333008 -5.5 1c-20.667 2 -39.834 10.667 -57.501 26s-26.834 33.666 -27.501 54.999h50
c1.33301 -8 5.5 -14.5 12.5 -19.5s14.5 -8.5 22.5 -10.5c2 -0.666992 4.16699 -1.16699 6.5 -1.5s4.5 -0.5 6.5 -0.5c12.667 0 23.167 4.83301 31.5 14.5s12.833 20.167 13.5 31.5v1.5v1.5c0 14.667 -4.66699 26.667 -14 36s-21 14 -35 14c-8.66699 0 -17 -2.5 -25 -7.5
s-14 -11.5 -18 -19.5l-51 13l35 116v0zM597.004 201.001l158.999 -0.000976562c-28 -66.667 -73.667 -119.667 -137 -159s-130.333 -59.333 -201 -60h-2.5h-2.5c-106 0 -196.333 38.167 -271 114.5s-112 167.166 -112 272.499c0 104.667 37.5 194.667 112.5 270
s163.833 113 266.5 113c74 0 143.833 -20.167 209.5 -60.5s112.834 -95.166 141.501 -164.499l-156 1c-22.667 27.333 -51.334 49.333 -86.001 66s-70.667 25 -108 25c-67.333 0 -124.666 -25.167 -171.999 -75.5s-71 -110.166 -71 -179.499
c0 -65.333 24.167 -123.333 72.5 -174s105.5 -76 171.5 -76c36.667 0 70.667 7.66699 102 23s59.333 36.333 84 63v1z" />
    <glyph glyph-name="ring" unicode="&#xc8;" horiz-adv-x="520" 
d="M68 0v739h397v-133h-260v-170h249v-133h-249v-170h260v-133h-397v0zM124 923l57 102l222 -135l-53 -92l-226 125v0z" />
    <glyph glyph-name="Eacute" unicode="&#xc9;" horiz-adv-x="520" 
d="M68 0v739h397v-133h-260v-170h249v-133h-249v-170h260v-133h-397v0zM174 798l-50 92l225 133l53 -104l-228 -121v0z" />
    <glyph glyph-name="macron" unicode="&#xca;" horiz-adv-x="520" 
d="M68 0v739h397v-133h-260v-170h249v-133h-249v-170h260v-133h-397v0zM64 805l148 138h105l146 -138h-145l-54 64l-55 -64h-145v0z" />
    <glyph glyph-name="dotaccent" unicode="&#xcb;" horiz-adv-x="520" 
d="M68 0v739h397v-133h-260v-170h249v-133h-249v-170h260v-133h-397v0zM84 805v133h133v-133h-133v0zM294 805v133h133v-133h-133v0z" />
    <glyph glyph-name="caron" unicode="&#xcc;" 
d="M68 0v739h137v-739h-137v0zM4 923l57 102l222 -135l-53 -92l-226 125v0z" />
    <glyph glyph-name="cedilla" unicode="&#xcd;" 
d="M68 0v739h137v-739h-137v0zM54 798l-50 92l225 133l53 -104l-228 -121v0z" />
    <glyph glyph-name="hungarumlaut" unicode="&#xce;" 
d="M68 0v739h137v-739h-137v0zM-56 805l148 138h105l146 -138h-145l-54 64l-55 -64h-145v0z" />
    <glyph glyph-name="ogonek" unicode="&#xcf;" 
d="M68 0v739h137v-739h-137v0zM-36 805v133h133v-133h-133v0zM174 805v133h133v-133h-133v0z" />
    <glyph glyph-name="glyph232" unicode="&#xd0;" horiz-adv-x="742" 
d="M268 0l-157.999 0.00195312v320h-96v106h96v313h155c6 -0.666992 11.833 -1 17.5 -1s11.167 -0.333008 16.5 -1c49.333 -1.33301 98 -7.5 146 -18.5s91.333 -33.167 130 -66.5c34 -28.667 61.5 -63.834 82.5 -105.501s34.5 -84.834 40.5 -129.501
c1.33301 -8.66699 2.33301 -17.334 3 -26.001s1 -17.334 1 -26.001c0 -7.33301 -0.166992 -14.666 -0.5 -21.999s-1.16602 -14.666 -2.49902 -21.999c-5.33301 -44.667 -18.833 -88 -40.5 -130s-49.5 -77.667 -83.5 -107c-44.667 -38 -92.834 -61.5 -144.501 -70.5
s-105.834 -13.5 -162.501 -13.5v0zM363.001 426.002l0.000976562 -106.002h-116v-187h17c38.667 -0.666992 75.667 1.5 111 6.5s69 19.167 101 42.5c28.667 22 50.667 49 66 81s23 66 23 102c0 38.667 -8.33301 75.5 -25 110.5s-41 63.5 -73 85.5
c-24 16.667 -49.833 27.834 -77.5 33.501s-55.834 8.83398 -84.501 9.50098c-8 0.666992 -16 1 -24 1h-24l-10 1v-180h116v0z" />
    <glyph glyph-name="Ntilde" unicode="&#xd1;" horiz-adv-x="740" 
d="M68 0v739h154l308 -540v540h137v-739h-152l-310 538v-538h-137v0zM253 809l-49.0039 88c11.333 10 24.333 18 39 24s29.667 9.66699 45 11c2.66699 0.666992 5.33398 1 8.00098 1h8c12 0 23 -1.5 33 -4.5s19.667 -6.16699 29 -9.5l26 -9.5c8 -3 16 -4.5 24 -4.5
c13.333 0 25.833 2.5 37.5 7.5s22.167 11.833 31.5 20.5l50 -84c-1.33301 -2 -2.5 -3.5 -3.5 -4.5s-2.16699 -1.83301 -3.5 -2.5c-13.333 -11.333 -27 -20.5 -41 -27.5s-30 -10.5 -48 -10.5c-11.333 0 -22 1.33301 -32 4s-19.667 5.66699 -29 9
c-1.33301 0.666992 -2.66602 1.16699 -3.99902 1.5s-2.66602 0.833008 -3.99902 1.5c-8.66699 2.66699 -17 5 -25 7s-16.667 3 -26 3c-12 0 -23.667 -1.83301 -35 -5.5s-21.666 -9.16699 -30.999 -16.5v1z" />
    <glyph glyph-name="scaron" unicode="&#xd2;" 
 />
    <glyph glyph-name="Lslash" unicode="&#xd3;" horiz-adv-x="840" 
d="M415 753c106.667 -0.666992 197.5 -38.667 272.5 -114s112.5 -166.666 112.5 -273.999c0 -106.667 -37.833 -197.167 -113.5 -271.5s-166.167 -111.5 -271.5 -111.5c-104.667 0 -195 37.167 -271 111.5s-114 164.833 -114 271.5c0 107.333 37.5 198.666 112.5 273.999
s165.833 113 272.5 113v1zM415 620c-68.667 -0.666992 -127.167 -25.5 -175.5 -74.5s-72.5 -108.167 -72.5 -177.5c0 -68.667 24.5 -128.167 73.5 -178.5s107.167 -75.5 174.5 -75.5s125.5 25.167 174.5 75.5s73.5 109.833 73.5 178.5c0 69.333 -24 128.5 -72 177.5
s-106.667 73.5 -176 73.5v1zM334 798l-50 92l225 133l53 -104l-228 -121v0z" />
    <glyph glyph-name="lslash" unicode="&#xd4;" horiz-adv-x="840" 
d="M415 753c106.667 -0.666992 197.5 -38.667 272.5 -114s112.5 -166.666 112.5 -273.999c0 -106.667 -37.833 -197.167 -113.5 -271.5s-166.167 -111.5 -271.5 -111.5c-104.667 0 -195 37.167 -271 111.5s-114 164.833 -114 271.5c0 107.333 37.5 198.666 112.5 273.999
s165.833 113 272.5 113v1zM415 620c-68.667 -0.666992 -127.167 -25.5 -175.5 -74.5s-72.5 -108.167 -72.5 -177.5c0 -68.667 24.5 -128.167 73.5 -178.5s107.167 -75.5 174.5 -75.5s125.5 25.167 174.5 75.5s73.5 109.833 73.5 178.5c0 69.333 -24 128.5 -72 177.5
s-106.667 73.5 -176 73.5v1zM224 805l148 138h105l146 -138h-145l-54 64l-55 -64h-145v0z" />
    <glyph glyph-name="guilsinglright" unicode="&#xd5;" horiz-adv-x="840" 
d="M415 753c106.667 -0.666992 197.5 -38.667 272.5 -114s112.5 -166.666 112.5 -273.999c0 -106.667 -37.833 -197.167 -113.5 -271.5s-166.167 -111.5 -271.5 -111.5c-104.667 0 -195 37.167 -271 111.5s-114 164.833 -114 271.5c0 107.333 37.5 198.666 112.5 273.999
s165.833 113 272.5 113v1zM415 620c-68.667 -0.666992 -127.167 -25.5 -175.5 -74.5s-72.5 -108.167 -72.5 -177.5c0 -68.667 24.5 -128.167 73.5 -178.5s107.167 -75.5 174.5 -75.5s125.5 25.167 174.5 75.5s73.5 109.833 73.5 178.5c0 69.333 -24 128.5 -72 177.5
s-106.667 73.5 -176 73.5v1zM303 809l-49.0039 88c11.333 10 24.333 18 39 24s29.667 9.66699 45 11c2.66699 0.666992 5.33398 1 8.00098 1h8c12 0 23 -1.5 33 -4.5s19.667 -6.16699 29 -9.5l26 -9.5c8 -3 16 -4.5 24 -4.5c13.333 0 25.833 2.5 37.5 7.5
s22.167 11.833 31.5 20.5l50 -84c-1.33301 -2 -2.5 -3.5 -3.5 -4.5s-2.16699 -1.83301 -3.5 -2.5c-13.333 -11.333 -27 -20.5 -41 -27.5s-30 -10.5 -48 -10.5c-11.333 0 -22 1.33301 -32 4s-19.667 5.66699 -29 9c-1.33301 0.666992 -2.66602 1.16699 -3.99902 1.5
s-2.66602 0.833008 -3.99902 1.5c-8.66699 2.66699 -17 5 -25 7s-16.667 3 -26 3c-12 0 -23.667 -1.83301 -35 -5.5s-21.666 -9.16699 -30.999 -16.5v1z" />
    <glyph glyph-name="Odieresis" unicode="&#xd6;" horiz-adv-x="840" 
d="M415 753c106.667 -0.666992 197.5 -38.667 272.5 -114s112.5 -166.666 112.5 -273.999c0 -106.667 -37.833 -197.167 -113.5 -271.5s-166.167 -111.5 -271.5 -111.5c-104.667 0 -195 37.167 -271 111.5s-114 164.833 -114 271.5c0 107.333 37.5 198.666 112.5 273.999
s165.833 113 272.5 113v1zM415 620c-68.667 -0.666992 -127.167 -25.5 -175.5 -74.5s-72.5 -108.167 -72.5 -177.5c0 -68.667 24.5 -128.167 73.5 -178.5s107.167 -75.5 174.5 -75.5s125.5 25.167 174.5 75.5s73.5 109.833 73.5 178.5c0 69.333 -24 128.5 -72 177.5
s-106.667 73.5 -176 73.5v1zM244 805v133h133v-133h-133v0zM454 805v133h133v-133h-133v0z" />
    <glyph glyph-name="multiply" unicode="&#xd7;" 
 />
    <glyph glyph-name="plusminus" unicode="&#xd8;" horiz-adv-x="840" 
d="M641 813l109.001 -74.999l-64 -93c37.333 -37.333 66.166 -80.833 86.499 -130.5s30.5 -100.5 30.5 -152.5c0 -50 -10.333 -98.5 -31 -145.5s-48.667 -87.833 -84 -122.5c-36.667 -36.667 -78.5 -64.5 -125.5 -83.5s-96.167 -28.5 -147.5 -28.5
c-20.667 0 -40.667 1.83301 -60 5.5s-38.333 8.16699 -57 13.5c-6 2 -12.167 4.16699 -18.5 6.5l-19.5 7.5l-60 -85l-110 75l60 86c-37.333 34.667 -66.666 75.667 -87.999 123s-32 96.666 -32 147.999c0 110 37.833 202.5 113.5 277.5s168.5 112.5 278.5 112.5
c18 0 35.167 -1.16699 51.5 -3.5s32.5 -5.83301 48.5 -10.5c9.33301 -2.66699 18.666 -5.66699 27.999 -9s19 -7 29 -11l62 95v0zM607.001 527.001l-268.001 -394c11.333 -6 22.833 -10.667 34.5 -14s23.834 -5 36.501 -5c33.333 0 65.333 6.66699 96 20s58 31.333 82 54
c22.667 21.333 41 46.5 55 75.5s21.667 58.833 23 89.5v4.5v4.5v9.5c0 3 -0.333008 6.16699 -1 9.5c-1.33301 26 -6.83301 51.667 -16.5 77s-23.5 48 -41.5 68v1zM228 207.001l266.999 393c-4.66699 1.33301 -9.5 3 -14.5 5l-14.5 6c-6.66699 2 -13.667 3.83301 -21 5.5
s-15 2.5 -23 2.5c-35.333 0 -68.666 -6.5 -99.999 -19.5s-59.333 -32.833 -84 -59.5c-22 -22.667 -39.333 -49 -52 -79s-19 -61 -19 -93c0 -30.667 5.5 -59.167 16.5 -85.5s25.833 -51.833 44.5 -76.5v1z" />
    <glyph glyph-name="Thorn" unicode="&#xd9;" horiz-adv-x="640" 
d="M68 739l137.002 0.000976562v-461v-6.5v-4.5v-5.5v-4.5c0 -14 0.666992 -27.667 2 -41s5.33301 -26.333 12 -39c10 -18.667 23.5 -33.834 40.5 -45.501s36.167 -17.5 57.5 -17.5h3.5h2.5c17.333 1.33301 33.833 6.5 49.5 15.5s28.167 21.167 37.5 36.5
c10 16 15.833 33 17.5 51s2.5 36.333 2.5 55v2.5v2.5v462h137v-461c0 -37.333 -3 -72.833 -9 -106.5s-21 -65.167 -45 -94.5c-24 -28.667 -53.333 -51.667 -88 -69s-70.667 -26 -108 -26c-3.33301 0 -6.83301 0.166992 -10.5 0.5s-7.16699 0.5 -10.5 0.5
c-32 3.33301 -62.833 13 -92.5 29s-54.834 35.667 -75.501 59c-26.667 30.667 -43.334 63 -50.001 97s-10 70.333 -10 109v462v0zM184.002 923.001l57 102l222 -135l-53 -92l-226 125v0z" />
    <glyph glyph-name="Eth" unicode="&#xda;" horiz-adv-x="640" 
d="M68 739l137.002 0.000976562v-461v-6.5v-4.5v-5.5v-4.5c0 -14 0.666992 -27.667 2 -41s5.33301 -26.333 12 -39c10 -18.667 23.5 -33.834 40.5 -45.501s36.167 -17.5 57.5 -17.5h3.5h2.5c17.333 1.33301 33.833 6.5 49.5 15.5s28.167 21.167 37.5 36.5
c10 16 15.833 33 17.5 51s2.5 36.333 2.5 55v2.5v2.5v462h137v-461c0 -37.333 -3 -72.833 -9 -106.5s-21 -65.167 -45 -94.5c-24 -28.667 -53.333 -51.667 -88 -69s-70.667 -26 -108 -26c-3.33301 0 -6.83301 0.166992 -10.5 0.5s-7.16699 0.5 -10.5 0.5
c-32 3.33301 -62.833 13 -92.5 29s-54.834 35.667 -75.501 59c-26.667 30.667 -43.334 63 -50.001 97s-10 70.333 -10 109v462v0zM234.002 798.001l-50 92l225 133l53 -104l-228 -121v0z" />
    <glyph glyph-name="eth" unicode="&#xdb;" horiz-adv-x="640" 
d="M68 739l137.002 0.000976562v-461v-6.5v-4.5v-5.5v-4.5c0 -14 0.666992 -27.667 2 -41s5.33301 -26.333 12 -39c10 -18.667 23.5 -33.834 40.5 -45.501s36.167 -17.5 57.5 -17.5h3.5h2.5c17.333 1.33301 33.833 6.5 49.5 15.5s28.167 21.167 37.5 36.5
c10 16 15.833 33 17.5 51s2.5 36.333 2.5 55v2.5v2.5v462h137v-461c0 -37.333 -3 -72.833 -9 -106.5s-21 -65.167 -45 -94.5c-24 -28.667 -53.333 -51.667 -88 -69s-70.667 -26 -108 -26c-3.33301 0 -6.83301 0.166992 -10.5 0.5s-7.16699 0.5 -10.5 0.5
c-32 3.33301 -62.833 13 -92.5 29s-54.834 35.667 -75.501 59c-26.667 30.667 -43.334 63 -50.001 97s-10 70.333 -10 109v462v0zM124.002 805.001l148 138h105l146 -138h-145l-54 64l-55 -64h-145v0z" />
    <glyph glyph-name="Udieresis" unicode="&#xdc;" horiz-adv-x="640" 
d="M68 739l137.002 0.000976562v-461v-6.5v-4.5v-5.5v-4.5c0 -14 0.666992 -27.667 2 -41s5.33301 -26.333 12 -39c10 -18.667 23.5 -33.834 40.5 -45.501s36.167 -17.5 57.5 -17.5h3.5h2.5c17.333 1.33301 33.833 6.5 49.5 15.5s28.167 21.167 37.5 36.5
c10 16 15.833 33 17.5 51s2.5 36.333 2.5 55v2.5v2.5v462h137v-461c0 -37.333 -3 -72.833 -9 -106.5s-21 -65.167 -45 -94.5c-24 -28.667 -53.333 -51.667 -88 -69s-70.667 -26 -108 -26c-3.33301 0 -6.83301 0.166992 -10.5 0.5s-7.16699 0.5 -10.5 0.5
c-32 3.33301 -62.833 13 -92.5 29s-54.834 35.667 -75.501 59c-26.667 30.667 -43.334 63 -50.001 97s-10 70.333 -10 109v462v0zM144.002 805.001v133h133v-133h-133v0zM354.002 805.001v133h133v-133h-133v0z" />
    <glyph glyph-name="Yacute" unicode="&#xdd;" 
 />
    <glyph glyph-name="glyph236" unicode="&#xde;" horiz-adv-x="560" 
d="M205 0h-137v739h137v-140h37c2 -0.666992 4.16699 -1 6.5 -1h6.5c33.333 0 65.5 -1.5 96.5 -4.5s61.167 -14.5 90.5 -34.5c30.667 -20.667 54.667 -47.5 72 -80.5s26 -68.167 26 -105.5c0 -36.667 -7.33301 -71.5 -22 -104.5s-36.667 -61.167 -66 -84.5
c-20 -16 -42.333 -27 -67 -33s-49.667 -9.66699 -75 -11c-10.667 -0.666992 -21.167 -1 -31.5 -1h-30.5h-8h-8l-27 1v-140v0zM205 273l25 0.00195312c2.66699 -0.666992 5.16699 -1 7.5 -1h7.5h16.5h16.5c10 0.666992 20 1.5 30 2.5s19.333 2.83301 28 5.5
c20 6.66699 36.167 18.167 48.5 34.5s18.5 35.166 18.5 56.499c0 22.667 -6.66699 41.667 -20 57s-30.333 25.666 -51 30.999c-7.33301 2 -15.333 3.5 -24 4.5s-17.667 1.5 -27 1.5h-18h-17h-8h-8l-25 1v-193v0z" />
    <glyph glyph-name="germandbls" unicode="&#xdf;" horiz-adv-x="600" 
d="M51 0l-0.00195312 475c0 32.667 2.66699 65 8 97s18 62 38 90c20.667 28 46.5 50 77.5 66s63.833 24 98.5 24c60.667 0 112 -19.833 154 -59.5s63 -90.167 63 -151.5c0 -6 -0.333008 -12.333 -1 -19s-1.66699 -13.334 -3 -20.001c-4 -19.333 -11 -37.666 -21 -54.999
s-23.667 -30 -41 -38v-1c48 -10 86.667 -32.333 116 -67s44 -76.667 44 -126c0 -68.667 -22.167 -124.667 -66.5 -168s-100.833 -65 -169.5 -65c-35.333 0 -68.666 7.83301 -99.999 23.5s-55.666 44.5 -72.999 86.5l-2 1v-93h-122v0zM183.998 190l85.0029 -0.00195312
c4 -22.667 14.667 -41.5 32 -56.5s37.333 -22.5 60 -22.5c27.333 0 49.166 9.33301 65.499 28s24.5 41.334 24.5 68.001c0 22.667 -6 42.167 -18 58.5s-28.667 28.833 -50 37.5c-10.667 4 -22 6.83301 -34 8.5s-24 2.83398 -36 3.50098h-19.5h-18.5h-6.5h-6.5l-5 1v118h7
c29.333 -0.666992 52.166 8.83301 68.499 28.5s24.5 43.167 24.5 70.5c0 25.333 -7.33301 46.5 -22 63.5s-35.334 25.5 -62.001 25.5c-38 0 -62.167 -12.667 -72.5 -38s-15.833 -53 -16.5 -83v-5.5v-5.5v-300v0z" />
    <glyph glyph-name="agrave" unicode="&#xe0;" horiz-adv-x="660" 
d="M615 554v-554.007h-122v75h-2c-16.667 -24 -38.667 -43.667 -66 -59s-55.666 -25.666 -84.999 -30.999l-18.5 -2c-6.33301 -0.666992 -12.5 -1 -18.5 -1c-42.667 0 -81.334 8.16699 -116.001 24.5s-64 38.833 -88 67.5c-22 26.667 -39 57.334 -51 92.001
s-18 71.334 -18 110.001s5.5 74.334 16.5 107.001s29.167 63.334 54.5 92.001c28 32.667 59.167 56.834 93.5 72.501s71.833 23.5 112.5 23.5c38 0 73 -8.16699 105 -24.5s59 -40.166 81 -71.499v79h122v0zM489 277.993c0 46 -14.833 84.834 -44.5 116.501
s-68.167 47.167 -115.5 46.5c-48.667 0.666992 -88.5 -15.333 -119.5 -48s-46.5 -73.334 -46.5 -122.001c0 -45.333 16.167 -83.5 48.5 -114.5s70.833 -46.167 115.5 -45.5c48 -0.666992 87 15 117 47s45 71.667 45 119v1zM194 737.994l57 102l222 -135l-53 -92l-226 125v0z
" />
    <glyph glyph-name="aacute" unicode="&#xe1;" horiz-adv-x="660" 
d="M615 554v-554.007h-122v75h-2c-16.667 -24 -38.667 -43.667 -66 -59s-55.666 -25.666 -84.999 -30.999l-18.5 -2c-6.33301 -0.666992 -12.5 -1 -18.5 -1c-42.667 0 -81.334 8.16699 -116.001 24.5s-64 38.833 -88 67.5c-22 26.667 -39 57.334 -51 92.001
s-18 71.334 -18 110.001s5.5 74.334 16.5 107.001s29.167 63.334 54.5 92.001c28 32.667 59.167 56.834 93.5 72.501s71.833 23.5 112.5 23.5c38 0 73 -8.16699 105 -24.5s59 -40.166 81 -71.499v79h122v0zM489 277.993c0 46 -14.833 84.834 -44.5 116.501
s-68.167 47.167 -115.5 46.5c-48.667 0.666992 -88.5 -15.333 -119.5 -48s-46.5 -73.334 -46.5 -122.001c0 -45.333 16.167 -83.5 48.5 -114.5s70.833 -46.167 115.5 -45.5c48 -0.666992 87 15 117 47s45 71.667 45 119v1zM244 612.994l-50 92l225 133l53 -104l-228 -121v0z
" />
    <glyph glyph-name="acircumflex" unicode="&#xe2;" horiz-adv-x="660" 
d="M615 554v-554.007h-122v75h-2c-16.667 -24 -38.667 -43.667 -66 -59s-55.666 -25.666 -84.999 -30.999l-18.5 -2c-6.33301 -0.666992 -12.5 -1 -18.5 -1c-42.667 0 -81.334 8.16699 -116.001 24.5s-64 38.833 -88 67.5c-22 26.667 -39 57.334 -51 92.001
s-18 71.334 -18 110.001s5.5 74.334 16.5 107.001s29.167 63.334 54.5 92.001c28 32.667 59.167 56.834 93.5 72.501s71.833 23.5 112.5 23.5c38 0 73 -8.16699 105 -24.5s59 -40.166 81 -71.499v79h122v0zM489 277.993c0 46 -14.833 84.834 -44.5 116.501
s-68.167 47.167 -115.5 46.5c-48.667 0.666992 -88.5 -15.333 -119.5 -48s-46.5 -73.334 -46.5 -122.001c0 -45.333 16.167 -83.5 48.5 -114.5s70.833 -46.167 115.5 -45.5c48 -0.666992 87 15 117 47s45 71.667 45 119v1zM134 619.994l148 138h105l146 -138h-145l-54 64
l-55 -64h-145v0z" />
    <glyph glyph-name="atilde" unicode="&#xe3;" horiz-adv-x="660" 
d="M615 554v-554.007h-122v75h-2c-16.667 -24 -38.667 -43.667 -66 -59s-55.666 -25.666 -84.999 -30.999l-18.5 -2c-6.33301 -0.666992 -12.5 -1 -18.5 -1c-42.667 0 -81.334 8.16699 -116.001 24.5s-64 38.833 -88 67.5c-22 26.667 -39 57.334 -51 92.001
s-18 71.334 -18 110.001s5.5 74.334 16.5 107.001s29.167 63.334 54.5 92.001c28 32.667 59.167 56.834 93.5 72.501s71.833 23.5 112.5 23.5c38 0 73 -8.16699 105 -24.5s59 -40.166 81 -71.499v79h122v0zM489 277.993c0 46 -14.833 84.834 -44.5 116.501
s-68.167 47.167 -115.5 46.5c-48.667 0.666992 -88.5 -15.333 -119.5 -48s-46.5 -73.334 -46.5 -122.001c0 -45.333 16.167 -83.5 48.5 -114.5s70.833 -46.167 115.5 -45.5c48 -0.666992 87 15 117 47s45 71.667 45 119v1zM213 623.994l-49.0039 88
c11.333 10 24.333 18 39 24s29.667 9.66699 45 11c2.66699 0.666992 5.33398 1 8.00098 1h8c12 0 23 -1.5 33 -4.5s19.667 -6.16699 29 -9.5l26 -9.5c8 -3 16 -4.5 24 -4.5c13.333 0 25.833 2.5 37.5 7.5s22.167 11.833 31.5 20.5l50 -84c-1.33301 -2 -2.5 -3.5 -3.5 -4.5
s-2.16699 -1.83301 -3.5 -2.5c-13.333 -11.333 -27 -20.5 -41 -27.5s-30 -10.5 -48 -10.5c-11.333 0 -22 1.33301 -32 4s-19.667 5.66699 -29 9c-1.33301 0.666992 -2.66602 1.16699 -3.99902 1.5s-2.66602 0.833008 -3.99902 1.5c-8.66699 2.66699 -17 5 -25 7
s-16.667 3 -26 3c-12 0 -23.667 -1.83301 -35 -5.5s-21.666 -9.16699 -30.999 -16.5v1z" />
    <glyph glyph-name="adieresis" unicode="&#xe4;" horiz-adv-x="660" 
d="M615 554v-554.007h-122v75h-2c-16.667 -24 -38.667 -43.667 -66 -59s-55.666 -25.666 -84.999 -30.999l-18.5 -2c-6.33301 -0.666992 -12.5 -1 -18.5 -1c-42.667 0 -81.334 8.16699 -116.001 24.5s-64 38.833 -88 67.5c-22 26.667 -39 57.334 -51 92.001
s-18 71.334 -18 110.001s5.5 74.334 16.5 107.001s29.167 63.334 54.5 92.001c28 32.667 59.167 56.834 93.5 72.501s71.833 23.5 112.5 23.5c38 0 73 -8.16699 105 -24.5s59 -40.166 81 -71.499v79h122v0zM489 277.993c0 46 -14.833 84.834 -44.5 116.501
s-68.167 47.167 -115.5 46.5c-48.667 0.666992 -88.5 -15.333 -119.5 -48s-46.5 -73.334 -46.5 -122.001c0 -45.333 16.167 -83.5 48.5 -114.5s70.833 -46.167 115.5 -45.5c48 -0.666992 87 15 117 47s45 71.667 45 119v1zM154 619.994v133h133v-133h-133v0zM364 619.994
v133h133v-133h-133v0z" />
    <glyph glyph-name="aring" unicode="&#xe5;" horiz-adv-x="660" 
d="M615 554v-554.007h-122v75h-2c-16.667 -24 -38.667 -43.667 -66 -59s-55.666 -25.666 -84.999 -30.999l-18.5 -2c-6.33301 -0.666992 -12.5 -1 -18.5 -1c-42.667 0 -81.334 8.16699 -116.001 24.5s-64 38.833 -88 67.5c-22 26.667 -39 57.334 -51 92.001
s-18 71.334 -18 110.001s5.5 74.334 16.5 107.001s29.167 63.334 54.5 92.001c28 32.667 59.167 56.834 93.5 72.501s71.833 23.5 112.5 23.5c38 0 73 -8.16699 105 -24.5s59 -40.166 81 -71.499v79h122v0zM489 277.993c0 46 -14.833 84.834 -44.5 116.501
s-68.167 47.167 -115.5 46.5c-48.667 0.666992 -88.5 -15.333 -119.5 -48s-46.5 -73.334 -46.5 -122.001c0 -45.333 16.167 -83.5 48.5 -114.5s70.833 -46.167 115.5 -45.5c48 -0.666992 87 15 117 47s45 71.667 45 119v1zM327 825.994c28.667 -0.666992 53 -11 73 -31
s30 -44.333 30 -73s-10 -53 -30 -73s-44.333 -30 -73 -30s-53 10 -73 30s-30 44.333 -30 73s10 53 30 73s44.333 30 73 30v1zM327 685.994c10 -0.666992 18.667 2.5 26 9.5s11 15.833 11 26.5c0 10 -3.66699 18.667 -11 26s-16 11 -26 11s-18.667 -3.66699 -26 -11
s-11 -16 -11 -26s3.66699 -18.667 11 -26s16 -11 26 -11v1z" />
    <glyph glyph-name="Otilde" unicode="&#xe6;" horiz-adv-x="1080" 
d="M1043 218l-429.998 0.00390625c8.66699 -31.333 26.834 -56.833 54.501 -76.5s57.167 -29.834 88.5 -30.501h2h2c25.333 0 49.166 4.66699 71.499 14s40.833 20.666 55.5 33.999l145 1c-19.333 -47.333 -54 -88.833 -104 -124.5s-104.333 -53.5 -163 -53.5
c-5.33301 0 -10.5 0.166992 -15.5 0.5s-10.167 0.833008 -15.5 1.5c-25.333 3.33301 -49.5 10.5 -72.5 21.5s-41.167 27.167 -54.5 48.5v-72h-122v73c-16.667 -24 -38 -41.5 -64 -52.5s-53 -17.5 -81 -19.5c-4 -0.666992 -7.83301 -1 -11.5 -1h-11.5
c-79.333 0 -147 29 -203 87s-84 126.333 -84 205c0 77.333 27.667 146.166 83 206.499s122.666 90.5 201.999 90.5c7.33301 0 15 -0.333008 23 -1s15.667 -1.66699 23 -3c23.333 -4 46.166 -11.333 68.499 -22s40.833 -25.334 55.5 -44.001v71h122v-70
c16 18.667 35.5 33.5 58.5 44.5s46.5 18.5 70.5 22.5c6 0.666992 11.833 1.16699 17.5 1.5s11.167 0.5 16.5 0.5c78.667 0 145.167 -28.833 199.5 -86.5s81.5 -125.167 81.5 -202.5c0 -10.667 -0.833008 -21.5 -2.5 -32.5s-3.5 -21.833 -5.5 -32.5v1zM481.002 276.004
c-0.666992 42.667 -16.001 80.833 -46.001 114.5s-67.667 50.5 -113 50.5c-46.667 0 -84.834 -16.5 -114.501 -49.5s-44.5 -72.167 -44.5 -117.5c0 -43.333 15.167 -81.333 45.5 -114s67.833 -49 112.5 -49s82.334 16.333 113.001 49s46.334 71 47.001 115v1z
M613.001 336.003l298 0.000976562c-11.333 31.333 -30.333 56.666 -57 75.999s-57 29 -91 29c-32.667 0 -63.167 -9.83301 -91.5 -29.5s-47.833 -45.167 -58.5 -76.5v1z" />
    <glyph glyph-name="ccedilla" unicode="&#xe7;" horiz-adv-x="640" 
d="M259 0l53.0039 0.000976562l-20 -57c1.33301 0 2.66602 0.166992 3.99902 0.5s2.66602 0.833008 3.99902 1.5l12.5 2c4.33301 0.666992 8.5 1 12.5 1c2.66699 0 5.5 -0.166992 8.5 -0.5s6.16699 -0.833008 9.5 -1.5c8.66699 -2.66699 17.167 -6.33398 25.5 -11.001
s15.833 -10 22.5 -16c10 -9.33301 17.333 -20.166 22 -32.499s7 -25.5 7 -39.5c0 -27.333 -9.66699 -50.5 -29 -69.5s-43 -28.5 -71 -28.5h-5.5c-1.66699 0 -3.5 0.333008 -5.5 1c-20.667 2 -39.834 10.667 -57.501 26s-26.834 33.666 -27.501 54.999h50
c1.33301 -8 5.5 -14.5 12.5 -19.5s14.5 -8.5 22.5 -10.5c2 -0.666992 4.16699 -1.16699 6.5 -1.5s4.5 -0.5 6.5 -0.5c12.667 0 23.167 4.83301 31.5 14.5s12.833 20.167 13.5 31.5v1.5v1.5c0 14.667 -4.66699 26.667 -14 36s-21 14 -35 14c-8.66699 0 -17 -2.5 -25 -7.5
s-14 -11.5 -18 -19.5l-51 13l35 116v0zM451.004 180.001h149.998c-18 -59.333 -53 -107.166 -105 -143.499s-108.667 -54.5 -170 -54.5h-9c-3.33301 0 -6.33301 0.333008 -9 1c-34.667 2 -68.5 10 -101.5 24s-61.833 33 -86.5 57c-30 28.667 -52.5 61.667 -67.5 99
s-22.5 76.333 -22.5 117c0 81.333 29 150.166 87 206.499s127.333 84.5 208 84.5c61.333 0 118.5 -18.667 171.5 -56s87.833 -86 104.5 -146l-150 1c-14.667 24 -32.5 41.833 -53.5 53.5s-45.833 17.5 -74.5 17.5c-47.333 0 -85.833 -15.667 -115.5 -47
s-44.5 -70 -44.5 -116c0 -48.667 15.667 -88.667 47 -120s71.333 -47 120 -47c24.667 0 47.834 6.16699 69.501 18.5s38.834 28.833 51.501 49.5v1z" />
    <glyph glyph-name="egrave" unicode="&#xe8;" horiz-adv-x="640" 
d="M601 218l-430 -0.00195312c10 -32.667 28.5 -58.667 55.5 -78s57.167 -29 90.5 -29c25.333 0 49.166 4.33301 71.499 13s39.833 20.334 52.5 35.001l147 1c-16.667 -50 -50.5 -92.167 -101.5 -126.5s-105.833 -51.5 -164.5 -51.5c-80.667 0 -149.5 28.167 -206.5 84.5
s-85.5 124.833 -85.5 205.5c0 82 28.333 152.333 85 211s126.334 88 209.001 88c79.333 0 146.5 -29.167 201.5 -87.5s82.5 -126.166 82.5 -203.499c0 -8.66699 -0.5 -17.167 -1.5 -25.5s-2.16699 -16.5 -3.5 -24.5c-0.666992 -2.66699 -1.16699 -5 -1.5 -7s-0.5 -4 -0.5 -6
v1zM169 335.998l305 -0.000976562c-10.667 32.667 -30 58.334 -58 77.001s-59 28 -93 28h-4h-4c-32 -2 -62 -12.5 -90 -31.5s-46.667 -43.833 -56 -74.5v1zM184 737.997l57 102l222 -135l-53 -92l-226 125v0z" />
    <glyph glyph-name="eacute" unicode="&#xe9;" horiz-adv-x="640" 
d="M601 218l-430 -0.00195312c10 -32.667 28.5 -58.667 55.5 -78s57.167 -29 90.5 -29c25.333 0 49.166 4.33301 71.499 13s39.833 20.334 52.5 35.001l147 1c-16.667 -50 -50.5 -92.167 -101.5 -126.5s-105.833 -51.5 -164.5 -51.5c-80.667 0 -149.5 28.167 -206.5 84.5
s-85.5 124.833 -85.5 205.5c0 82 28.333 152.333 85 211s126.334 88 209.001 88c79.333 0 146.5 -29.167 201.5 -87.5s82.5 -126.166 82.5 -203.499c0 -8.66699 -0.5 -17.167 -1.5 -25.5s-2.16699 -16.5 -3.5 -24.5c-0.666992 -2.66699 -1.16699 -5 -1.5 -7s-0.5 -4 -0.5 -6
v1zM169 335.998l305 -0.000976562c-10.667 32.667 -30 58.334 -58 77.001s-59 28 -93 28h-4h-4c-32 -2 -62 -12.5 -90 -31.5s-46.667 -43.833 -56 -74.5v1zM234 612.997l-50 92l225 133l53 -104l-228 -121v0z" />
    <glyph glyph-name="ecircumflex" unicode="&#xea;" horiz-adv-x="640" 
d="M601 218l-430 -0.00195312c10 -32.667 28.5 -58.667 55.5 -78s57.167 -29 90.5 -29c25.333 0 49.166 4.33301 71.499 13s39.833 20.334 52.5 35.001l147 1c-16.667 -50 -50.5 -92.167 -101.5 -126.5s-105.833 -51.5 -164.5 -51.5c-80.667 0 -149.5 28.167 -206.5 84.5
s-85.5 124.833 -85.5 205.5c0 82 28.333 152.333 85 211s126.334 88 209.001 88c79.333 0 146.5 -29.167 201.5 -87.5s82.5 -126.166 82.5 -203.499c0 -8.66699 -0.5 -17.167 -1.5 -25.5s-2.16699 -16.5 -3.5 -24.5c-0.666992 -2.66699 -1.16699 -5 -1.5 -7s-0.5 -4 -0.5 -6
v1zM169 335.998l305 -0.000976562c-10.667 32.667 -30 58.334 -58 77.001s-59 28 -93 28h-4h-4c-32 -2 -62 -12.5 -90 -31.5s-46.667 -43.833 -56 -74.5v1zM124 619.997l148 138h105l146 -138h-145l-54 64l-55 -64h-145v0z" />
    <glyph glyph-name="edieresis" unicode="&#xeb;" horiz-adv-x="640" 
d="M601 218l-430 -0.00195312c10 -32.667 28.5 -58.667 55.5 -78s57.167 -29 90.5 -29c25.333 0 49.166 4.33301 71.499 13s39.833 20.334 52.5 35.001l147 1c-16.667 -50 -50.5 -92.167 -101.5 -126.5s-105.833 -51.5 -164.5 -51.5c-80.667 0 -149.5 28.167 -206.5 84.5
s-85.5 124.833 -85.5 205.5c0 82 28.333 152.333 85 211s126.334 88 209.001 88c79.333 0 146.5 -29.167 201.5 -87.5s82.5 -126.166 82.5 -203.499c0 -8.66699 -0.5 -17.167 -1.5 -25.5s-2.16699 -16.5 -3.5 -24.5c-0.666992 -2.66699 -1.16699 -5 -1.5 -7s-0.5 -4 -0.5 -6
v1zM169 335.998l305 -0.000976562c-10.667 32.667 -30 58.334 -58 77.001s-59 28 -93 28h-4h-4c-32 -2 -62 -12.5 -90 -31.5s-46.667 -43.833 -56 -74.5v1zM144 619.997v133h133v-133h-133v0zM354 619.997v133h133v-133h-133v0z" />
    <glyph glyph-name="igrave" unicode="&#xec;" horiz-adv-x="240" 
d="M54 0v554h133v-554h-133v0zM-16 738l57 102l222 -135l-53 -92l-226 125v0z" />
    <glyph glyph-name="iacute" unicode="&#xed;" horiz-adv-x="240" 
d="M54 0v554h133v-554h-133v0zM34 613l-50 92l225 133l53 -104l-228 -121v0z" />
    <glyph glyph-name="icircumflex" unicode="&#xee;" horiz-adv-x="240" 
d="M54 0v554h133v-554h-133v0zM-76 620l148 138h105l146 -138h-145l-54 64l-55 -64h-145v0z" />
    <glyph glyph-name="idieresis" unicode="&#xef;" horiz-adv-x="240" 
d="M54 0v554h133v-554h-133v0zM-56 620v133h133v-133h-133v0zM154 620v133h133v-133h-133v0z" />
    <glyph glyph-name="glyph233" unicode="&#xf0;" horiz-adv-x="640" 
d="M112 739l140 0.00195312l48 -19l98 50l82 -34l-98 -50l19.5 -15c6.33301 -4.66699 12.5 -9.66699 18.5 -15c68 -54 118.167 -110.333 150.5 -169s48.5 -129.334 48.5 -212.001c0 -82 -29 -151.333 -87 -208s-127.667 -85 -209 -85c-80 0 -148.833 28.667 -206.5 86
s-86.5 126.333 -86.5 207c0 84 29.5 154.333 88.5 211s124.833 85 197.5 85c6 0 12.333 -0.5 19 -1.5s13.334 -2.5 20.001 -4.5c12 -2.66699 23.5 -6.5 34.5 -11.5s19.833 -10.5 26.5 -16.5l2 3c-10.667 13.333 -24 26.666 -40 39.999s-32.667 25.666 -50 36.999l-18 11.5
l-18 10.5l-95 -48l-78 36l107 55l-35.5 18.5c-11 5.66699 -21.5 10.834 -31.5 15.501l-9 3.5c-2.66699 1 -5.33398 2.16699 -8.00098 3.5l-14.5 6.5c-5 2.33301 -10.167 4.5 -15.5 6.5v3v0zM323 442.002c-44.667 -0.666992 -82.5 -17.833 -113.5 -51.5
s-46.5 -72.167 -46.5 -115.5c0 -44.667 15.333 -83.167 46 -115.5s68.667 -48.5 114 -48.5c47.333 0 86.333 15.667 117 47s46 70.333 46 117c0 45.333 -15.667 84.333 -47 117s-70 49 -116 49v1z" />
    <glyph glyph-name="ntilde" unicode="&#xf1;" horiz-adv-x="600" 
d="M54 0l-0.00195312 553.999h123v-51h2c15.333 20.667 35.5 36.667 60.5 48s51.167 18 78.5 20h6h6h8c2.66699 0 5.33398 -0.333008 8.00098 -1c26.667 -2 52.5 -9 77.5 -21s46.5 -27.667 64.5 -47l7.5 -7.5c2.33301 -2.33301 4.5 -5.16602 6.5 -8.49902
c21.333 -30 34 -62 38 -96s6 -68.667 6 -104v-286h-133v261v26c0 9.33301 -0.333008 18.666 -1 27.999c-1.33301 14.667 -3.66602 28.834 -6.99902 42.501s-8.33301 26.167 -15 37.5c-8.66699 13.333 -20.5 24 -35.5 32s-30.5 12.667 -46.5 14h-2.5h-3.5h-6.5
c-2.33301 0 -4.83301 -0.333008 -7.5 -1c-15.333 -2 -30.333 -7.16699 -45 -15.5s-26 -19.166 -34 -32.499c-6.66699 -10.667 -11.667 -23.167 -15 -37.5s-5.33301 -28.833 -6 -43.5c-0.666992 -8.66699 -1 -17.334 -1 -26.001v-25v-5.5v-4.5v-250h-133v0zM182.998 623.999
l-49.0039 88c11.333 10 24.333 18 39 24s29.667 9.66699 45 11c2.66699 0.666992 5.33398 1 8.00098 1h8c12 0 23 -1.5 33 -4.5s19.667 -6.16699 29 -9.5l26 -9.5c8 -3 16 -4.5 24 -4.5c13.333 0 25.833 2.5 37.5 7.5s22.167 11.833 31.5 20.5l50 -84
c-1.33301 -2 -2.5 -3.5 -3.5 -4.5s-2.16699 -1.83301 -3.5 -2.5c-13.333 -11.333 -27 -20.5 -41 -27.5s-30 -10.5 -48 -10.5c-11.333 0 -22 1.33301 -32 4s-19.667 5.66699 -29 9c-1.33301 0.666992 -2.66602 1.16699 -3.99902 1.5s-2.66602 0.833008 -3.99902 1.5
c-8.66699 2.66699 -17 5 -25 7s-16.667 3 -26 3c-12 0 -23.667 -1.83301 -35 -5.5s-21.666 -9.16699 -30.999 -16.5v1z" />
    <glyph glyph-name="ograve" unicode="&#xf2;" horiz-adv-x="640" 
d="M329 572c81.333 -0.666992 150 -30.167 206 -88.5s84 -127.833 84 -208.5c0 -82 -29 -151.333 -87 -208s-127.667 -85 -209 -85c-80 0 -148.833 28.667 -206.5 86s-86.5 126.333 -86.5 207c0 83.333 29.167 153.5 87.5 210.5s128.833 85.5 211.5 85.5v1zM323 442
c-4 -0.666992 -8 -1.16699 -12 -1.5s-8 -0.833008 -12 -1.5c-16.667 -3.33301 -33 -9.33301 -49 -18s-29.667 -19 -41 -31c-15.333 -15.333 -26.833 -32.833 -34.5 -52.5s-11.5 -40.5 -11.5 -62.5c0 -44.667 15.333 -83.167 46 -115.5s68.667 -48.5 114 -48.5
c47.333 0 86.333 15.667 117 47s46 70.333 46 117c0 45.333 -15.667 84.333 -47 117s-70 49 -116 49v1zM184 738l57 102l222 -135l-53 -92l-226 125v0z" />
    <glyph glyph-name="oacute" unicode="&#xf3;" horiz-adv-x="640" 
d="M329 572c81.333 -0.666992 150 -30.167 206 -88.5s84 -127.833 84 -208.5c0 -82 -29 -151.333 -87 -208s-127.667 -85 -209 -85c-80 0 -148.833 28.667 -206.5 86s-86.5 126.333 -86.5 207c0 83.333 29.167 153.5 87.5 210.5s128.833 85.5 211.5 85.5v1zM323 442
c-4 -0.666992 -8 -1.16699 -12 -1.5s-8 -0.833008 -12 -1.5c-16.667 -3.33301 -33 -9.33301 -49 -18s-29.667 -19 -41 -31c-15.333 -15.333 -26.833 -32.833 -34.5 -52.5s-11.5 -40.5 -11.5 -62.5c0 -44.667 15.333 -83.167 46 -115.5s68.667 -48.5 114 -48.5
c47.333 0 86.333 15.667 117 47s46 70.333 46 117c0 45.333 -15.667 84.333 -47 117s-70 49 -116 49v1zM234 613l-50 92l225 133l53 -104l-228 -121v0z" />
    <glyph glyph-name="ocircumflex" unicode="&#xf4;" horiz-adv-x="640" 
d="M329 572c81.333 -0.666992 150 -30.167 206 -88.5s84 -127.833 84 -208.5c0 -82 -29 -151.333 -87 -208s-127.667 -85 -209 -85c-80 0 -148.833 28.667 -206.5 86s-86.5 126.333 -86.5 207c0 83.333 29.167 153.5 87.5 210.5s128.833 85.5 211.5 85.5v1zM323 442
c-4 -0.666992 -8 -1.16699 -12 -1.5s-8 -0.833008 -12 -1.5c-16.667 -3.33301 -33 -9.33301 -49 -18s-29.667 -19 -41 -31c-15.333 -15.333 -26.833 -32.833 -34.5 -52.5s-11.5 -40.5 -11.5 -62.5c0 -44.667 15.333 -83.167 46 -115.5s68.667 -48.5 114 -48.5
c47.333 0 86.333 15.667 117 47s46 70.333 46 117c0 45.333 -15.667 84.333 -47 117s-70 49 -116 49v1zM124 620l148 138h105l146 -138h-145l-54 64l-55 -64h-145v0z" />
    <glyph glyph-name="otilde" unicode="&#xf5;" horiz-adv-x="640" 
d="M329 572c81.333 -0.666992 150 -30.167 206 -88.5s84 -127.833 84 -208.5c0 -82 -29 -151.333 -87 -208s-127.667 -85 -209 -85c-80 0 -148.833 28.667 -206.5 86s-86.5 126.333 -86.5 207c0 83.333 29.167 153.5 87.5 210.5s128.833 85.5 211.5 85.5v1zM323 442
c-4 -0.666992 -8 -1.16699 -12 -1.5s-8 -0.833008 -12 -1.5c-16.667 -3.33301 -33 -9.33301 -49 -18s-29.667 -19 -41 -31c-15.333 -15.333 -26.833 -32.833 -34.5 -52.5s-11.5 -40.5 -11.5 -62.5c0 -44.667 15.333 -83.167 46 -115.5s68.667 -48.5 114 -48.5
c47.333 0 86.333 15.667 117 47s46 70.333 46 117c0 45.333 -15.667 84.333 -47 117s-70 49 -116 49v1zM203 624l-49.0039 88c11.333 10 24.333 18 39 24s29.667 9.66699 45 11c2.66699 0.666992 5.33398 1 8.00098 1h8c12 0 23 -1.5 33 -4.5s19.667 -6.16699 29 -9.5
l26 -9.5c8 -3 16 -4.5 24 -4.5c13.333 0 25.833 2.5 37.5 7.5s22.167 11.833 31.5 20.5l50 -84c-1.33301 -2 -2.5 -3.5 -3.5 -4.5s-2.16699 -1.83301 -3.5 -2.5c-13.333 -11.333 -27 -20.5 -41 -27.5s-30 -10.5 -48 -10.5c-11.333 0 -22 1.33301 -32 4
s-19.667 5.66699 -29 9c-1.33301 0.666992 -2.66602 1.16699 -3.99902 1.5s-2.66602 0.833008 -3.99902 1.5c-8.66699 2.66699 -17 5 -25 7s-16.667 3 -26 3c-12 0 -23.667 -1.83301 -35 -5.5s-21.666 -9.16699 -30.999 -16.5v1z" />
    <glyph glyph-name="odieresis" unicode="&#xf6;" horiz-adv-x="640" 
d="M329 572c81.333 -0.666992 150 -30.167 206 -88.5s84 -127.833 84 -208.5c0 -82 -29 -151.333 -87 -208s-127.667 -85 -209 -85c-80 0 -148.833 28.667 -206.5 86s-86.5 126.333 -86.5 207c0 83.333 29.167 153.5 87.5 210.5s128.833 85.5 211.5 85.5v1zM323 442
c-4 -0.666992 -8 -1.16699 -12 -1.5s-8 -0.833008 -12 -1.5c-16.667 -3.33301 -33 -9.33301 -49 -18s-29.667 -19 -41 -31c-15.333 -15.333 -26.833 -32.833 -34.5 -52.5s-11.5 -40.5 -11.5 -62.5c0 -44.667 15.333 -83.167 46 -115.5s68.667 -48.5 114 -48.5
c47.333 0 86.333 15.667 117 47s46 70.333 46 117c0 45.333 -15.667 84.333 -47 117s-70 49 -116 49v1zM144 620v133h133v-133h-133v0zM354 620v133h133v-133h-133v0z" />
    <glyph glyph-name="Aacute" unicode="&#xf7;" 
 />
    <glyph glyph-name="OE" unicode="&#xf8;" horiz-adv-x="660" 
d="M443 549l38.0029 57.001l99 -68l-39 -58c24.667 -26.667 43.667 -56.834 57 -90.501s20.666 -68.167 21.999 -103.5v-4.5v-5.5c0 -78 -28.333 -146.5 -85 -205.5s-124.667 -88.5 -204 -88.5c-12.667 0 -24.834 0.833008 -36.501 2.5s-23.167 3.83398 -34.5 6.50098l-22 6
l-22 6l-38 -53l-98 68l36 54c-27.333 25.333 -48.5 56 -63.5 92s-22.5 73 -22.5 111c0 81.333 28.833 151 86.5 209s127.167 87 208.5 87c13.333 0 26 -0.833008 38 -2.5s23.667 -3.83398 35 -6.50098c7.33301 -2 14.666 -4.16699 21.999 -6.5l23 -7.5v1zM464.003 366.001
l-173.002 -251.999c5.33301 -2.66699 10.833 -4.5 16.5 -5.5s11.5 -1.5 17.5 -1.5c48.667 0 87.834 16 117.501 48s44.5 72 44.5 120c0 11.333 -0.666992 21.5 -2 30.5s-3.33301 17.833 -6 26.5c-2 5.33301 -4.16699 10.666 -6.5 15.999s-5.16602 11 -8.49902 17v1z
M192.001 182.002l176.001 256.001c-3.33301 0 -6.83301 0.333008 -10.5 1l-10.5 2c-4 0 -7.83301 0.166992 -11.5 0.5s-7.16699 0.5 -10.5 0.5c-23.333 0 -45.833 -5.16699 -67.5 -15.5s-39.834 -24.5 -54.501 -42.5c-13.333 -16 -23.333 -33.5 -30 -52.5
s-10 -39.167 -10 -60.5c0 -16.667 2.66699 -32.334 8 -47.001s12.333 -29 21 -43v1z" />
    <glyph glyph-name="ugrave" unicode="&#xf9;" horiz-adv-x="600" 
d="M414 554l132.999 -0.00195312v-554h-122v59h-2c-14 -27.333 -33.333 -47 -58 -59s-52.334 -18 -83.001 -18c-32.667 0 -64.167 6.16699 -94.5 18.5s-57.166 31.5 -80.499 57.5c-24.667 26.667 -39.667 54.834 -45 84.501s-8 62.167 -8 97.5v314h133v-272
c0 -8.66699 0.166992 -17.5 0.5 -26.5s0.833008 -18.167 1.5 -27.5c1.33301 -10.667 3.16602 -21.167 5.49902 -31.5s5.5 -19.833 9.5 -28.5c9.33301 -18 22.333 -32 39 -42s35.334 -15 56.001 -15c44.667 0 74.334 14.833 89.001 44.5s23 62.167 25 97.5
c0.666992 4.66699 1 9.33398 1 14.001v14v273v0zM163.999 737.998l57 102l222 -135l-53 -92l-226 125v0z" />
    <glyph glyph-name="uacute" unicode="&#xfa;" horiz-adv-x="600" 
d="M414 554l132.999 -0.00195312v-554h-122v59h-2c-14 -27.333 -33.333 -47 -58 -59s-52.334 -18 -83.001 -18c-32.667 0 -64.167 6.16699 -94.5 18.5s-57.166 31.5 -80.499 57.5c-24.667 26.667 -39.667 54.834 -45 84.501s-8 62.167 -8 97.5v314h133v-272
c0 -8.66699 0.166992 -17.5 0.5 -26.5s0.833008 -18.167 1.5 -27.5c1.33301 -10.667 3.16602 -21.167 5.49902 -31.5s5.5 -19.833 9.5 -28.5c9.33301 -18 22.333 -32 39 -42s35.334 -15 56.001 -15c44.667 0 74.334 14.833 89.001 44.5s23 62.167 25 97.5
c0.666992 4.66699 1 9.33398 1 14.001v14v273v0zM213.999 612.998l-50 92l225 133l53 -104l-228 -121v0z" />
    <glyph glyph-name="ucircumflex" unicode="&#xfb;" horiz-adv-x="600" 
d="M414 554l132.999 -0.00195312v-554h-122v59h-2c-14 -27.333 -33.333 -47 -58 -59s-52.334 -18 -83.001 -18c-32.667 0 -64.167 6.16699 -94.5 18.5s-57.166 31.5 -80.499 57.5c-24.667 26.667 -39.667 54.834 -45 84.501s-8 62.167 -8 97.5v314h133v-272
c0 -8.66699 0.166992 -17.5 0.5 -26.5s0.833008 -18.167 1.5 -27.5c1.33301 -10.667 3.16602 -21.167 5.49902 -31.5s5.5 -19.833 9.5 -28.5c9.33301 -18 22.333 -32 39 -42s35.334 -15 56.001 -15c44.667 0 74.334 14.833 89.001 44.5s23 62.167 25 97.5
c0.666992 4.66699 1 9.33398 1 14.001v14v273v0zM103.999 619.998l148 138h105l146 -138h-145l-54 64l-55 -64h-145v0z" />
    <glyph glyph-name="udieresis" unicode="&#xfc;" horiz-adv-x="600" 
d="M414 554l132.999 -0.00195312v-554h-122v59h-2c-14 -27.333 -33.333 -47 -58 -59s-52.334 -18 -83.001 -18c-32.667 0 -64.167 6.16699 -94.5 18.5s-57.166 31.5 -80.499 57.5c-24.667 26.667 -39.667 54.834 -45 84.501s-8 62.167 -8 97.5v314h133v-272
c0 -8.66699 0.166992 -17.5 0.5 -26.5s0.833008 -18.167 1.5 -27.5c1.33301 -10.667 3.16602 -21.167 5.49902 -31.5s5.5 -19.833 9.5 -28.5c9.33301 -18 22.333 -32 39 -42s35.334 -15 56.001 -15c44.667 0 74.334 14.833 89.001 44.5s23 62.167 25 97.5
c0.666992 4.66699 1 9.33398 1 14.001v14v273v0zM123.999 619.998v133h133v-133h-133v0zM333.999 619.998v133h133v-133h-133v0z" />
    <glyph glyph-name="yacute" unicode="&#xfd;" 
 />
    <glyph glyph-name="glyph237" unicode="&#xfe;" horiz-adv-x="660" 
d="M54 -185l0.000976562 924h133v-241c20 20.667 43.167 38 69.5 52s59.5 21 99.5 21c40.667 0 78.167 -8.16699 112.5 -24.5s63.833 -38.166 88.5 -65.499c23.333 -26 42 -55.833 56 -89.5s21 -72.167 21 -115.5c0 -78.667 -26 -147.334 -78 -206.001
s-118.667 -88 -200 -88c-34.667 0 -65.834 6 -93.501 18s-52.167 31.667 -73.5 59l-2 1v-245h-133v0zM342.001 442c-46.667 -0.666992 -85.501 -17.001 -116.501 -49.001s-46.5 -71 -46.5 -117c0 -24 4.16699 -46.5 12.5 -67.5s21.5 -39.5 39.5 -55.5
c10.667 -9.33301 23 -17.5 37 -24.5s28 -11.833 42 -14.5c4.66699 -1.33301 9.16699 -2.16602 13.5 -2.49902s8.83301 -0.5 13.5 -0.5c47.333 0 86.5 16 117.5 48s46.5 71.333 46.5 118c0 44 -15.167 82.333 -45.5 115s-68.166 49 -113.499 49v1z" />
    <glyph glyph-name="Egrave" unicode="&#xff;" horiz-adv-x="580" 
d="M107 -185l102 237l-203 502h151l127 -355l133 355h151l-318 -739h-143v0zM114 620v133h133v-133h-133v0zM324 620v133h133v-133h-133v0z" />
    <glyph glyph-name="Abreve" unicode="&#x102;" 
 />
    <glyph glyph-name="abreve" unicode="&#x103;" 
 />
    <glyph glyph-name="Aogonek" unicode="&#x104;" 
 />
    <glyph glyph-name="aogonek" unicode="&#x105;" 
 />
    <glyph glyph-name="Cacute" unicode="&#x106;" 
 />
    <glyph glyph-name="cacute" unicode="&#x107;" 
 />
    <glyph glyph-name="Ccaron" unicode="&#x10c;" 
 />
    <glyph glyph-name="ccaron" unicode="&#x10d;" 
 />
    <glyph glyph-name="Dcaron" unicode="&#x10e;" 
 />
    <glyph glyph-name="dcaron" unicode="&#x10f;" 
 />
    <glyph glyph-name="Dcroat" unicode="&#x110;" 
 />
    <glyph glyph-name="dcroat" unicode="&#x111;" 
 />
    <glyph glyph-name="Eogonek" unicode="&#x118;" 
 />
    <glyph glyph-name="eogonek" unicode="&#x119;" 
 />
    <glyph glyph-name="Ecaron" unicode="&#x11a;" 
 />
    <glyph glyph-name="ecaron" unicode="&#x11b;" 
 />
    <glyph glyph-name="Gbreve" unicode="&#x11e;" 
 />
    <glyph glyph-name="gbreve" unicode="&#x11f;" 
 />
    <glyph glyph-name="Idotaccent" unicode="&#x130;" 
 />
    <glyph glyph-name="thorn" unicode="&#x131;" horiz-adv-x="240" 
d="M54 0v554h133v-554h-133v0z" />
    <glyph glyph-name="Lacute" unicode="&#x139;" 
 />
    <glyph glyph-name="lacute" unicode="&#x13a;" 
 />
    <glyph glyph-name="Lcaron" unicode="&#x13d;" 
 />
    <glyph glyph-name="lcaron" unicode="&#x13e;" 
 />
    <glyph glyph-name="Ldot" unicode="&#x13f;" 
 />
    <glyph glyph-name="ldot" unicode="&#x140;" 
 />
    <glyph glyph-name="glyph225" unicode="&#x141;" horiz-adv-x="480" 
d="M110 0v262l-96 -75v135l96 75v342h137v-248l133 104v-135l-133 -103v-224h226v-133h-363v0z" />
    <glyph glyph-name="glyph226" unicode="&#x142;" horiz-adv-x="320" 
d="M98 0v290l-81 -63v140l81 63v309h133v-216l81 62v-140l-81 -63v-382h-133v0z" />
    <glyph glyph-name="Nacute" unicode="&#x143;" 
 />
    <glyph glyph-name="nacute" unicode="&#x144;" 
 />
    <glyph glyph-name="Ncaron" unicode="&#x147;" 
 />
    <glyph glyph-name="ncaron" unicode="&#x148;" 
 />
    <glyph glyph-name="Ohungarumlaut" unicode="&#x150;" 
 />
    <glyph glyph-name="ohungarumlaut" unicode="&#x151;" 
 />
    <glyph glyph-name="fi" unicode="&#x152;" horiz-adv-x="1060" 
d="M1004 0h-355v82h-2c-16 -21.333 -37.5 -39.166 -64.5 -53.499s-55.167 -24.833 -84.5 -31.5c-15.333 -3.33301 -30.333 -6 -45 -8s-28.667 -3 -42 -3c-104.667 0 -193 37.833 -265 113.5s-108 165.167 -108 268.5c0 105.333 35.833 195.666 107.5 270.999
s160.5 113 266.5 113c12.667 0 26.167 -0.833008 40.5 -2.5s28.5 -4.16699 42.5 -7.5c30 -7.33301 58.667 -18.333 86 -33s49.333 -33 66 -55l2 1v84h355v-133h-219v-170h208v-133h-208v-170h219v-133v0zM415 617c-72 -0.666992 -130 -25.667 -174 -75
s-66 -108.666 -66 -177.999c0 -66.667 23.5 -123.834 70.5 -171.501s103.833 -71.5 170.5 -71.5c67.333 0 123.833 24.167 169.5 72.5s68.5 105.5 68.5 171.5c0 67.333 -22.5 126 -67.5 176s-102.167 75 -171.5 75v1z" />
    <glyph glyph-name="fl" unicode="&#x153;" horiz-adv-x="1080" 
d="M1041 218l-427.996 0.00195312c9.33301 -32 28.166 -57.833 56.499 -77.5s58.833 -29.5 91.5 -29.5c5.33301 0 10.666 0.333008 15.999 1s11 1.66699 17 3c14.667 3.33301 29 8.16602 43 14.499s26.333 13.166 37 20.499c2 1.33301 4 2.83301 6 4.5s4 3.16699 6 4.5
l142 1c-17.333 -50 -51.833 -92.167 -103.5 -126.5s-106.834 -51.5 -165.501 -51.5c-4 0 -8.16699 0.166992 -12.5 0.5s-8.5 0.5 -12.5 0.5c-38 4 -74.5 15.667 -109.5 35s-62.5 45.333 -82.5 78c-21.333 -35.333 -50.5 -62.5 -87.5 -81.5s-75.833 -29.833 -116.5 -32.5h-8
h-8c-81.333 0 -150.333 28.5 -207 85.5s-85 125.833 -85 206.5c0 81.333 28 151.166 84 209.499s125.333 87.5 208 87.5c43.333 0 84.666 -9.83301 123.999 -29.5s71.333 -47.5 96 -83.5c27.333 35.333 58.333 63 93 83s74.667 30 120 30c82 0 151.333 -28 208 -84
s85 -125 85 -207c0 -6 -0.166992 -11.667 -0.5 -17s-0.833008 -10.666 -1.5 -15.999l-2 -12.5l-2 -12.5l-1 -4v0zM323.004 442.002c-44 -0.666992 -81.667 -16.5 -113 -47.5s-47 -68.833 -47 -113.5c0 -22 3.33301 -43.167 10 -63.5s17.667 -38.833 33 -55.5
c13.333 -14.667 29.333 -26.5 48 -35.5s38 -14.167 58 -15.5h4h4c46 0 84.667 16 116 48s47 70.667 47 116c0 44.667 -15.333 83.5 -46 116.5s-68.667 49.5 -114 49.5v1zM609.004 336.002l296.001 -0.000976562c-7.33301 32.667 -24.833 58.334 -52.5 77.001
s-58.167 28 -91.5 28c-36.667 0 -68.334 -8.83301 -95.001 -26.5s-45.667 -44.167 -57 -79.5v1z" />
    <glyph glyph-name="Racute" unicode="&#x154;" 
 />
    <glyph glyph-name="racute" unicode="&#x155;" 
 />
    <glyph glyph-name="Rcaron" unicode="&#x158;" 
 />
    <glyph glyph-name="rcaron" unicode="&#x159;" 
 />
    <glyph glyph-name="Sacute" unicode="&#x15a;" 
 />
    <glyph glyph-name="sacute" unicode="&#x15b;" 
 />
    <glyph glyph-name="Scedilla" unicode="&#x15e;" 
 />
    <glyph glyph-name="scedilla" unicode="&#x15f;" 
 />
    <glyph glyph-name="glyph227" unicode="&#x160;" horiz-adv-x="520" 
d="M14 208l143 -0.00488281c0 -30 10.333 -53.167 31 -69.5s44.667 -24.5 72 -24.5c26 0 48.5 8.83301 67.5 26.5s28.5 39.834 28.5 66.501c0 36.667 -11.667 63.334 -35 80.001s-49 29.667 -77 39c-2.66699 1.33301 -5.5 2.5 -8.5 3.5s-5.83301 1.83301 -8.5 2.5
c-2 0.666992 -3.83301 1.33398 -5.5 2.00098s-3.5 1.33398 -5.5 2.00098c-22 7.33301 -42.667 15.5 -62 24.5s-37.666 22.167 -54.999 39.5c-15.333 16 -27.833 34.333 -37.5 55s-16.167 42 -19.5 64c0 4 -0.166992 7.83301 -0.5 11.5s-0.5 7.5 -0.5 11.5
c0 60.667 21.667 110.834 65 150.501s94.333 59.5 153 59.5c57.333 0 107.833 -20.5 151.5 -61.5s65.167 -90.5 64.5 -148.5l-141 1c-0.666992 22.667 -9.33398 41 -26.001 55s-35.667 21 -57 21c-22 0 -39.667 -7.33301 -53 -22s-20 -32.667 -20 -54v-0.5v-0.5v-0.5v-0.5
c-0.666992 -24 7.33301 -42.333 24 -55s35 -22.667 55 -30c2 -0.666992 4.33301 -1.5 7 -2.5s5 -1.83301 7 -2.5c3.33301 -1.33301 6.66602 -2.5 9.99902 -3.5s6.66602 -2.16699 9.99902 -3.5c22.667 -7.33301 44.5 -15.5 65.5 -24.5s40.5 -21.167 58.5 -36.5
c26.667 -20.667 46.334 -44.834 59.001 -72.501s19 -59.5 19 -95.5c0 -66 -23.667 -121.333 -71 -166s-103.666 -67 -168.999 -67c-62.667 0 -118.167 21.333 -166.5 64s-72.5 96.334 -72.5 161.001v1zM64 942.995h145l55 -64l54 64h145l-146 -138h-105l-148 138v0z" />
    <glyph glyph-name="glyph228" unicode="&#x161;" horiz-adv-x="440" 
d="M405 402l-129.997 -0.000976562c-2 12.667 -7.83301 22.334 -17.5 29.001s-20.834 10 -33.501 10c-14.667 0 -27 -3.83301 -37 -11.5s-15 -19.167 -15 -34.5v0v0v-1v0c-0.666992 -12.667 4 -22.5 14 -29.5s20.667 -12.5 32 -16.5l15.5 -4
c5 -1.33301 9.5 -2.66602 13.5 -3.99902c44.667 -13.333 84.667 -30.833 120 -52.5s53 -60.167 53 -115.5c0 -26 -4.66699 -50.167 -14 -72.5s-23.333 -42.5 -42 -60.5c-14.667 -13.333 -31.834 -24.666 -51.501 -33.999s-39.834 -16 -60.501 -20l-16 -2
c-5.33301 -0.666992 -10.666 -1 -15.999 -1c-56.667 0 -103.834 17.667 -141.501 53s-57.5 81.333 -59.5 138l136 1c3.33301 -18 11 -33 23 -45s27.667 -18 47 -18c16 0 30.333 4.5 43 13.5s19 22.167 19 39.5c0 16.667 -6.16699 29.5 -18.5 38.5
s-26.166 16.167 -41.499 21.5c-6 2.66699 -11.833 4.83398 -17.5 6.50098s-11.167 3.5 -16.5 5.5c-4.66699 1.33301 -9 2.66602 -13 3.99902l-12 4l-21 8c-6.66699 2.66699 -13.334 5.66699 -20.001 9c-5.33301 2.66699 -10.833 5.83398 -16.5 9.50098
s-11.5 8.16699 -17.5 13.5c-18 15.333 -31.5 32.666 -40.5 51.999s-13.5 40.666 -13.5 63.999c0 51.333 19 92.666 57 123.999s81.333 47 130 47c46 0 87.333 -16.5 124 -49.5s55 -73.167 55 -120.5v1zM24.0029 757.999h145l55 -64l54 64h145l-146 -138h-105l-148 138v0z
" />
    <glyph glyph-name="Tcommaaccent" unicode="&#x162;" 
 />
    <glyph glyph-name="tcommaaccent" unicode="&#x163;" 
 />
    <glyph glyph-name="Tcaron" unicode="&#x164;" 
 />
    <glyph glyph-name="tcaron" unicode="&#x165;" 
 />
    <glyph glyph-name="Uring" unicode="&#x16e;" 
 />
    <glyph glyph-name="uring" unicode="&#x16f;" 
 />
    <glyph glyph-name="Uhungarumlaut" unicode="&#x170;" 
 />
    <glyph glyph-name="uhungarumlaut" unicode="&#x171;" 
 />
    <glyph glyph-name="Iacute" unicode="&#x178;" horiz-adv-x="620" 
d="M246 0v273l-243 466h151l161 -340l161 340h150l-243 -466v-273h-137v0zM134 805v133h133v-133h-133v0zM344 805v133h133v-133h-133v0z" />
    <glyph glyph-name="Zacute" unicode="&#x179;" 
 />
    <glyph glyph-name="zacute" unicode="&#x17a;" 
 />
    <glyph glyph-name="Zdotaccent" unicode="&#x17b;" 
 />
    <glyph glyph-name="zdotaccent" unicode="&#x17c;" 
 />
    <glyph glyph-name="Zcaron" unicode="&#x17d;" 
 />
    <glyph glyph-name="zcaron" unicode="&#x17e;" 
 />
    <glyph glyph-name="quotedblright" unicode="&#x192;" horiz-adv-x="560" 
d="M365 585l91.9951 -0.00292969l-19 -115h-93l-61 -352l-6 -36c-2 -12 -4.33301 -24 -7 -36c-4 -21.333 -9.66699 -42 -17 -62s-17.333 -37.667 -30 -53c-20.667 -26 -46.667 -45.5 -78 -58.5s-63.666 -20.5 -96.999 -22.5h-6.5h-7.5c-4 0 -8.16699 0.166992 -12.5 0.5
s-8.83301 0.833008 -13.5 1.5c-4.66699 0 -9 0.5 -13 1.5s-8 2.16699 -12 3.5l19 114l33 -3c48.667 0 79.334 15 92.001 45s22 64 28 102c0.666992 2 1.16699 4.16699 1.5 6.5s0.5 4.5 0.5 6.5c0.666992 2 1.16699 3.83301 1.5 5.5s0.5 3.5 0.5 5.5l58 331h-94l19 115h96
l1 10l0.5 1.5c0.333008 1 0.5 1.83301 0.5 2.5c4.66699 27.333 10.667 53 18 77s20.333 47 39 69c21.333 25.333 46.333 44.333 75 57s59.334 19 92.001 19c5.33301 0 10.333 -0.166992 15 -0.5s9.33398 -1.16602 14.001 -2.49902l-20 -116h-7
c-1.33301 -0.666992 -2.66602 -1 -3.99902 -1h-5c-8.66699 -1.33301 -17 -3.5 -25 -6.5s-15.333 -7.16699 -22 -12.5c-14 -11.333 -23.833 -23.666 -29.5 -36.999s-10.167 -28.666 -13.5 -45.999l-3 -14v0z" />
    <glyph glyph-name="uni02BA" unicode="&#x2ba;" horiz-adv-x="700" 
d="M124 620l-50 80l210 145l60 -94l-220 -131v0zM410 620l-50 80l210 145l59 -94l-219 -131v0z" />
    <glyph glyph-name="arrowright" unicode="&#x2c6;" horiz-adv-x="480" 
d="M123 624l-49.0039 88c11.333 10 24.333 18 39 24s29.667 9.66699 45 11c2.66699 0.666992 5.33398 1 8.00098 1h8c12 0 23 -1.5 33 -4.5s19.667 -6.16699 29 -9.5l26 -9.5c8 -3 16 -4.5 24 -4.5c13.333 0 25.833 2.5 37.5 7.5s22.167 11.833 31.5 20.5l50 -84
c-1.33301 -2 -2.5 -3.5 -3.5 -4.5s-2.16699 -1.83301 -3.5 -2.5c-13.333 -11.333 -27 -20.5 -41 -27.5s-30 -10.5 -48 -10.5c-11.333 0 -22 1.33301 -32 4s-19.667 5.66699 -29 9c-1.33301 0.666992 -2.66602 1.16699 -3.99902 1.5s-2.66602 0.833008 -3.99902 1.5
c-8.66699 2.66699 -17 5 -25 7s-16.667 3 -26 3c-12 0 -23.667 -1.83301 -35 -5.5s-21.666 -9.16699 -30.999 -16.5v1z" />
    <glyph glyph-name="glyph224" unicode="&#x2c7;" horiz-adv-x="540" 
d="M74 758h145l55 -64l54 64h145l-146 -138h-105l-148 138v0z" />
    <glyph glyph-name="house" unicode="&#x2c9;" horiz-adv-x="420" 
d="M74 620v110h277v-110h-277v0z" />
    <glyph glyph-name="endash" unicode="&#x2d8;" horiz-adv-x="480" 
d="M74 756h99c5.33301 -12.667 13.666 -22.5 24.999 -29.5s23.333 -10.833 36 -11.5h3h2h2h3c12.667 0.666992 24.667 4.5 36 11.5s19.666 16.5 24.999 28.5l99 1c-5.33301 -46 -23.166 -80.333 -53.499 -103s-67.5 -34 -111.5 -34s-81.167 11.333 -111.5 34
s-48.166 56.667 -53.499 102v1z" />
    <glyph glyph-name="sfthyphen" unicode="&#x2d9;" 
d="M74 620v133h133v-133h-133v0z" />
    <glyph glyph-name="filledbox" unicode="&#x2da;" horiz-adv-x="360" 
d="M177 826c28.667 -0.666992 53 -11 73 -31s30 -44.333 30 -73s-10 -53 -30 -73s-44.333 -30 -73 -30s-53 10 -73 30s-30 44.333 -30 73s10 53 30 73s44.333 30 73 30v1zM177 686c10 -0.666992 18.667 2.5 26 9.5s11 15.833 11 26.5c0 10 -3.66699 18.667 -11 26
s-16 11 -26 11s-18.667 -3.66699 -26 -11s-11 -16 -11 -26s3.66699 -18.667 11 -26s16 -11 26 -11v1z" />
    <glyph glyph-name="glyph223" unicode="&#x2db;" horiz-adv-x="340" 
d="M160 0l70.001 0.000976562l-4 -3l-9 -7l-10 -8c-10.667 -7.33301 -20.167 -16 -28.5 -26s-12.5 -21.333 -12.5 -34c0 -14.667 5 -25.834 15 -33.501s22 -11.5 36 -11.5c5.33301 0 10 0.5 14 1.5s8 2.16699 12 3.5c2.66699 1.33301 5 2.33301 7 3s4 1.66699 6 3v-78
c-10.667 -4.66699 -21.834 -8 -33.501 -10s-23.5 -3 -35.5 -3c-28.667 0 -54.667 8 -78 24s-35 39.667 -35 71c0 26.667 8.83301 48.5 26.5 65.5s37.5 31.167 59.5 42.5v0z" />
    <glyph glyph-name="onehalf" unicode="&#x2dc;" horiz-adv-x="540" 
d="M74 620l148 138h105l146 -138h-145l-54 64l-55 -64h-145v0z" />
    <glyph glyph-name="Gamma" unicode="&#x393;" 
 />
    <glyph glyph-name="Theta" unicode="&#x398;" 
 />
    <glyph glyph-name="exclamdown" unicode="&#x3a3;" 
 />
    <glyph glyph-name="Phi" unicode="&#x3a6;" 
 />
    <glyph glyph-name="Atilde" unicode="&#x3a9;" 
 />
    <glyph glyph-name="alpha" unicode="&#x3b1;" 
 />
    <glyph glyph-name="delta" unicode="&#x3b4;" 
 />
    <glyph glyph-name="epsilon" unicode="&#x3b5;" 
 />
    <glyph glyph-name="guillemotleft" unicode="&#x3c0;" 
 />
    <glyph glyph-name="sigma" unicode="&#x3c3;" 
 />
    <glyph glyph-name="tau" unicode="&#x3c4;" 
 />
    <glyph glyph-name="phi" unicode="&#x3c6;" 
 />
    <glyph glyph-name="glyph259" unicode="&#x2013;" horiz-adv-x="500" 
d="M0 259v118h500v-118h-500v0z" />
    <glyph glyph-name="periodcentered" unicode="&#x2014;" horiz-adv-x="1000" 
d="M0 259v118h1000v-118h-1000v0z" />
    <glyph glyph-name="underscoredbl" unicode="&#x2017;" 
 />
    <glyph glyph-name="Acircumflex" unicode="&#x2018;" 
d="M205 613l0.000976562 -133.001h-133v128c0 19.333 1.16699 36.5 3.5 51.5s9.16602 29.833 20.499 44.5l6 6l6 6c10 10 21.5 18 34.5 24s26.167 9.66699 39.5 11c2.66699 0.666992 5.16699 1 7.5 1h7.5h3.5h2.5v-66c-16 -3.33301 -29.5 -9.16602 -40.5 -17.499
s-16.5 -21.5 -16.5 -39.5v-16h59v0z" />
    <glyph glyph-name="Ecircumflex" unicode="&#x2019;" 
d="M72 606v132.999h133v-129c0 -18.667 -1 -35.167 -3 -49.5s-7.66699 -28.166 -17 -41.499c-2 -3.33301 -4.33301 -6.5 -7 -9.5s-5.66699 -6.16699 -9 -9.5c-10 -10 -21.5 -17.833 -34.5 -23.5s-26.167 -9.16699 -39.5 -10.5c-2.66699 -0.666992 -5.16699 -1 -7.5 -1h-7.5
h-3.5h-3.5v68c16.667 2 30.5 7 41.5 15s16.5 21.333 16.5 40v18h-59v0z" />
    <glyph glyph-name="Ugrave" unicode="&#x201a;" 
 />
    <glyph glyph-name="quotedblbase" unicode="&#x201c;" horiz-adv-x="480" 
d="M203 613v-133.001h-133v128c0 19.333 1.16699 36.5 3.5 51.5s9.5 29.833 21.5 44.5c1.33301 2 3 4 5 6l6 6c10 10 21.5 18 34.5 24s26.167 9.66699 39.5 11c2.66699 0.666992 5.16699 1 7.5 1h7.5h4h3v-66c-16.667 -3.33301 -30.5 -9.16602 -41.5 -17.499
s-16.5 -21.5 -16.5 -39.5v-16h59v0zM410 612.999v-133.001h-133v128c0 19.333 1.16699 36.5 3.5 51.5s9.16602 29.833 20.499 44.5l6 6l6 6c10.667 10.667 22.834 19 36.501 25s27.834 9.66699 42.501 11h4.5h4.5h4h3v-66
c-16.667 -3.33301 -30.334 -9.16602 -41.001 -17.499s-16 -21.5 -16 -39.5v-16h59v0z" />
    <glyph glyph-name="perthousand" unicode="&#x201d;" horiz-adv-x="480" 
d="M70 606v132.999h133v-129c0 -18.667 -0.833008 -35.167 -2.5 -49.5s-7.5 -28.166 -17.5 -41.499c-2 -3.33301 -4.33301 -6.5 -7 -9.5s-5.66699 -6.16699 -9 -9.5c-10 -10 -21.5 -17.833 -34.5 -23.5s-26.167 -9.16699 -39.5 -10.5
c-2.66699 -0.666992 -5.16699 -1 -7.5 -1h-7.5h-3.5h-3.5v68c16.667 2 30.5 7 41.5 15s16.5 21.333 16.5 40v18h-59v0zM277 605.999v132.999h133v-129c0 -18.667 -1 -35.167 -3 -49.5s-7.66699 -28.166 -17 -41.499c-2 -3.33301 -4.33301 -6.5 -7 -9.5
s-5.66699 -6.16699 -9 -9.5c-10 -10 -21.5 -17.833 -34.5 -23.5s-26.167 -9.16699 -39.5 -10.5c-2.66699 -0.666992 -5.16699 -1 -7.5 -1h-7.5h-3.5h-3.5v68c16.667 2 30.5 7 41.5 15s16.5 21.333 16.5 40v18h-59v0z" />
    <glyph glyph-name="dotlessi" unicode="&#x201e;" horiz-adv-x="480" 
d="M70 0l-0.000976562 133h133v-128c0 -20 -1.16699 -37.5 -3.5 -52.5s-9.16602 -29.833 -20.499 -44.5l-6 -6l-6 -6c-10 -10 -21.5 -18 -34.5 -24s-26.167 -9.66699 -39.5 -11c-2.66699 -0.666992 -5.16699 -1 -7.5 -1h-7.5h-3.5h-3.5v67
c16.667 2.66699 30.5 8.16699 41.5 16.5s16.5 21.5 16.5 39.5v17h-59v0zM276.999 0v133h133v-128c0 -20 -1.16699 -37.5 -3.5 -52.5s-9.5 -29.833 -21.5 -44.5c-1.33301 -2 -3 -4 -5 -6l-6 -6c-10 -10 -21.5 -18 -34.5 -24s-26.167 -9.66699 -39.5 -11
c-2.66699 -0.666992 -5.16699 -1 -7.5 -1h-7.5h-3.5h-3.5v67c16.667 2.66699 30.5 8.16699 41.5 16.5s16.5 21.5 16.5 39.5v17h-59v0z" />
    <glyph glyph-name="dagger" unicode="&#x2020;" horiz-adv-x="560" 
d="M344 739v-186h161v-118h-161v-563h-133v563h-163v118h163v186h133v0z" />
    <glyph glyph-name="Uacute" unicode="&#x2021;" horiz-adv-x="560" 
d="M342 739v-147h163v-118h-163v-97h163v-118h-163v-387h-133v387h-161v118h161v97h-161v118h161v147h133v0z" />
    <glyph glyph-name="glyph262" unicode="&#x2022;" horiz-adv-x="600" 
d="M471 318c0 -47.333 -16.5 -87.5 -49.5 -120.5s-72.833 -49.5 -119.5 -49.5s-86.334 16.5 -119.001 49.5s-49 72.833 -49 119.5s16.333 86.334 49 119.001s72.334 49 119.001 49s86.5 -16.333 119.5 -49s49.5 -72.334 49.5 -119.001v1z" />
    <glyph glyph-name="fraction" unicode="&#x2026;" horiz-adv-x="1000" 
d="M100 0v133h133v-133h-133v0zM433 0v133h133v-133h-133v0zM766 0v133h133v-133h-133v0z" />
    <glyph glyph-name="circumflex" unicode="&#x2030;" horiz-adv-x="1280" 
d="M655 342c50 -0.666992 92.5 -18.5 127.5 -53.5s52.5 -77.5 52.5 -127.5s-17.5 -92.333 -52.5 -127s-77.5 -52 -127.5 -52s-92.5 17.5 -127.5 52.5s-52.5 77.167 -52.5 126.5c0 50 17.5 92.5 52.5 127.5s77.5 52.5 127.5 52.5v1zM655 231
c-19.333 -0.666992 -35.666 -7.66895 -48.999 -21.002s-20 -29.666 -20 -48.999s6.66699 -35.666 20 -48.999s29.666 -20 48.999 -20s35.666 6.83301 48.999 20.5s20 29.834 20 48.501c0 19.333 -6.66699 35.666 -20 48.999s-29.666 20 -48.999 20v1zM1068 341.998
c50 -0.666992 92.5 -18.5 127.5 -53.5s52.5 -77.5 52.5 -127.5s-17.5 -92.333 -52.5 -127s-77.5 -52 -127.5 -52c-49.333 0 -91.666 17.5 -126.999 52.5s-53 77.167 -53 126.5c0 50 17.667 92.5 53 127.5s77.666 52.5 126.999 52.5v1zM1068 230.998
c-18.667 -0.666992 -34.834 -7.66895 -48.501 -21.002s-20.5 -29.666 -20.5 -48.999s6.83301 -35.666 20.5 -48.999s29.834 -20 48.501 -20c19.333 0 35.666 6.83301 48.999 20.5s20 29.834 20 48.501c0 19.333 -6.66699 35.666 -20 48.999s-29.666 20 -48.999 20v1z
M223 -0.00390625l306 739h102l-306 -739h-102v0zM201 752.996c49.333 -0.666992 91.5 -18.5 126.5 -53.5s52.5 -77.5 52.5 -127.5c0 -49.333 -17.5 -91.666 -52.5 -126.999s-77.167 -53 -126.5 -53c-50 0 -92.5 17.667 -127.5 53s-52.5 77.666 -52.5 126.999
c0 50 17.5 92.5 52.5 127.5s77.5 52.5 127.5 52.5v1zM201 641.996c-19.333 -0.666992 -35.668 -7.66699 -49.001 -21s-20 -29.666 -20 -48.999c0 -18.667 6.83301 -34.834 20.5 -48.501s29.5 -20.5 47.5 -20.5c18.667 0 34.834 6.83301 48.501 20.5s20.5 29.834 20.5 48.501
c0 19.333 -6.5 35.666 -19.5 48.999s-29.167 20 -48.5 20v1z" />
    <glyph glyph-name="Igrave" unicode="&#x2039;" horiz-adv-x="240" 
d="M175 136l-139 131v101l139 130v-123l-67 -57l67 -59v-123v0z" />
    <glyph glyph-name="Oacute" unicode="&#x203a;" horiz-adv-x="240" 
d="M73 136v123l68 59l-68 57v123l139 -130v-101l-139 -131v0z" />
    <glyph glyph-name="exclamdbl" unicode="&#x203c;" 
 />
    <glyph glyph-name="uni207F" unicode="&#x207f;" 
 />
    <glyph glyph-name="franc" unicode="&#x20a3;" 
 />
    <glyph glyph-name="peseta" unicode="&#x20a7;" 
 />
    <glyph glyph-name="trademark" unicode="&#x2122;" horiz-adv-x="1000" 
d="M414 739v-78h-123v-326h-97v326h-123v78h343v0zM929 739v-404h-88v326l-119 -326h-52l-119 326v-326h-88v404h142l91 -239l91 239h142v0z" />
    <glyph glyph-name="arrowleft" unicode="&#x2190;" 
 />
    <glyph glyph-name="arrowup" unicode="&#x2191;" 
 />
    <glyph glyph-name="glyph257" unicode="&#x2192;" horiz-adv-x="500" 
 />
    <glyph glyph-name="arrowdown" unicode="&#x2193;" 
 />
    <glyph glyph-name="arrowboth" unicode="&#x2194;" 
 />
    <glyph glyph-name="arrowupdn" unicode="&#x2195;" 
 />
    <glyph glyph-name="arrowupdnbse" unicode="&#x21a8;" 
 />
    <glyph glyph-name="questiondown" unicode="&#x2202;" 
 />
    <glyph glyph-name="quoteright" unicode="&#x2206;" 
 />
    <glyph glyph-name="florin" unicode="&#x220f;" 
 />
    <glyph glyph-name="minus" unicode="&#x2212;" 
 />
    <glyph glyph-name="Icircumflex" unicode="&#x2215;" horiz-adv-x="160" 
d="M-121 0l306 739h95l-306 -739h-95v0z" />
    <glyph glyph-name="Ucircumflex" unicode="&#x2219;" 
d="M72 251v133h133v-133h-133v0z" />
    <glyph glyph-name="quotedblleft" unicode="&#x221a;" 
 />
    <glyph glyph-name="yen" unicode="&#x221e;" 
 />
    <glyph glyph-name="orthogonal" unicode="&#x221f;" 
 />
    <glyph glyph-name="intersection" unicode="&#x2229;" 
 />
    <glyph glyph-name="guillemotright" unicode="&#x222b;" 
 />
    <glyph glyph-name="quoteleft" unicode="&#x2248;" 
 />
    <glyph glyph-name="AE" unicode="&#x2260;" 
 />
    <glyph glyph-name="equivalence" unicode="&#x2261;" 
 />
    <glyph glyph-name="ordfeminine" unicode="&#x2264;" 
 />
    <glyph glyph-name="ordmasculine" unicode="&#x2265;" 
 />
    <glyph glyph-name="glyph258" unicode="&#x2302;" 
 />
    <glyph glyph-name="revlogicalnot" unicode="&#x2310;" 
 />
    <glyph glyph-name="integraltp" unicode="&#x2320;" 
 />
    <glyph glyph-name="integralbt" unicode="&#x2321;" 
 />
    <glyph glyph-name="SF100000" unicode="&#x2500;" 
 />
    <glyph glyph-name="SF110000" unicode="&#x2502;" 
 />
    <glyph glyph-name="SF010000" unicode="&#x250c;" 
 />
    <glyph glyph-name="SF030000" unicode="&#x2510;" 
 />
    <glyph glyph-name="SF020000" unicode="&#x2514;" 
 />
    <glyph glyph-name="SF040000" unicode="&#x2518;" 
 />
    <glyph glyph-name="SF080000" unicode="&#x251c;" 
 />
    <glyph glyph-name="SF090000" unicode="&#x2524;" 
 />
    <glyph glyph-name="SF060000" unicode="&#x252c;" 
 />
    <glyph glyph-name="SF070000" unicode="&#x2534;" 
 />
    <glyph glyph-name="SF050000" unicode="&#x253c;" 
 />
    <glyph glyph-name="SF430000" unicode="&#x2550;" 
 />
    <glyph glyph-name="SF240000" unicode="&#x2551;" 
 />
    <glyph glyph-name="SF510000" unicode="&#x2552;" 
 />
    <glyph glyph-name="SF520000" unicode="&#x2553;" 
 />
    <glyph glyph-name="SF390000" unicode="&#x2554;" 
 />
    <glyph glyph-name="SF220000" unicode="&#x2555;" 
 />
    <glyph glyph-name="SF210000" unicode="&#x2556;" 
 />
    <glyph glyph-name="SF250000" unicode="&#x2557;" 
 />
    <glyph glyph-name="SF500000" unicode="&#x2558;" 
 />
    <glyph glyph-name="SF490000" unicode="&#x2559;" 
 />
    <glyph glyph-name="SF380000" unicode="&#x255a;" 
 />
    <glyph glyph-name="SF280000" unicode="&#x255b;" 
 />
    <glyph glyph-name="SF270000" unicode="&#x255c;" 
 />
    <glyph glyph-name="SF260000" unicode="&#x255d;" 
 />
    <glyph glyph-name="SF360000" unicode="&#x255e;" 
 />
    <glyph glyph-name="SF370000" unicode="&#x255f;" 
 />
    <glyph glyph-name="SF420000" unicode="&#x2560;" 
 />
    <glyph glyph-name="SF190000" unicode="&#x2561;" 
 />
    <glyph glyph-name="SF200000" unicode="&#x2562;" 
 />
    <glyph glyph-name="SF230000" unicode="&#x2563;" 
 />
    <glyph glyph-name="SF470000" unicode="&#x2564;" 
 />
    <glyph glyph-name="SF480000" unicode="&#x2565;" 
 />
    <glyph glyph-name="SF410000" unicode="&#x2566;" 
 />
    <glyph glyph-name="SF450000" unicode="&#x2567;" 
 />
    <glyph glyph-name="SF460000" unicode="&#x2568;" 
 />
    <glyph glyph-name="SF400000" unicode="&#x2569;" 
 />
    <glyph glyph-name="SF540000" unicode="&#x256a;" 
 />
    <glyph glyph-name="SF530000" unicode="&#x256b;" 
 />
    <glyph glyph-name="SF440000" unicode="&#x256c;" 
 />
    <glyph glyph-name="upblock" unicode="&#x2580;" 
 />
    <glyph glyph-name="dnblock" unicode="&#x2584;" 
 />
    <glyph glyph-name="block" unicode="&#x2588;" 
 />
    <glyph glyph-name="lfblock" unicode="&#x258c;" 
 />
    <glyph glyph-name="rtblock" unicode="&#x2590;" 
 />
    <glyph glyph-name="ltshade" unicode="&#x2591;" 
 />
    <glyph glyph-name="shade" unicode="&#x2592;" 
 />
    <glyph glyph-name="dkshade" unicode="&#x2593;" 
 />
    <glyph glyph-name="glyph261" unicode="&#x25a0;" horiz-adv-x="500" 
 />
    <glyph glyph-name="filledrect" unicode="&#x25ac;" 
 />
    <glyph glyph-name="triagup" unicode="&#x25b2;" 
 />
    <glyph glyph-name="triagrt" unicode="&#x25ba;" 
 />
    <glyph glyph-name="triagdn" unicode="&#x25bc;" 
 />
    <glyph glyph-name="triaglf" unicode="&#x25c4;" 
 />
    <glyph glyph-name="Edieresis" unicode="&#x25ca;" 
 />
    <glyph glyph-name="circle" unicode="&#x25cb;" 
 />
    <glyph glyph-name="invbullet" unicode="&#x25d8;" 
 />
    <glyph glyph-name="invcircle" unicode="&#x25d9;" 
 />
    <glyph glyph-name="smileface" unicode="&#x263a;" 
 />
    <glyph glyph-name="invsmileface" unicode="&#x263b;" 
 />
    <glyph glyph-name="sun" unicode="&#x263c;" 
 />
    <glyph glyph-name="female" unicode="&#x2640;" 
 />
    <glyph glyph-name="male" unicode="&#x2642;" 
 />
    <glyph glyph-name="spade" unicode="&#x2660;" 
 />
    <glyph glyph-name="club" unicode="&#x2663;" 
 />
    <glyph glyph-name="heart" unicode="&#x2665;" 
 />
    <glyph glyph-name="diamond" unicode="&#x2666;" 
 />
    <glyph glyph-name="musicalnote" unicode="&#x266a;" 
 />
    <glyph glyph-name="musicalnotedbl" unicode="&#x266b;" 
 />
    <glyph glyph-name="Scaron" unicode="&#xf000;" 
 />
    <glyph glyph-name="Ocircumflex" unicode="&#xf001;" horiz-adv-x="520" 
d="M55 0v436h-47v118h47c1.33301 52 17.833 98 49.5 138s75.5 60 131.5 60l37 -1v-129c-28 -0.666992 -48.833 -4.5 -62.5 -11.5s-21.167 -26.167 -22.5 -57.5l78 1v-118h-78v-436h-133v0zM328 0v554h133v-554h-133v0zM328 619v120h133v-120h-133v0z" />
    <glyph glyph-name="Ograve" unicode="&#xf002;" horiz-adv-x="520" 
d="M55 0v436h-47v118h47c1.33301 52 18 98 50 138s76 60 132 60l36 -1v-129c-28 -0.666992 -48.667 -4.5 -62 -11.5s-21 -26.167 -23 -57.5l78 1v-118h-78v-436h-133v0zM461 739v-739h-133v739h133v0z" />
    <glyph glyph-name="glyph1" horiz-adv-x="0" 
 />
    <glyph glyph-name="glyph2" 
 />
    <glyph glyph-name="degree" horiz-adv-x="400" 
d="M350 589c0 -42 -14.668 -77.666 -44.001 -106.999s-64.666 -44 -105.999 -44s-76.666 14.667 -105.999 44s-44 64.666 -44 105.999c-0.666992 41.333 13.833 76.666 43.5 105.999s65.167 44 106.5 44s76.666 -14.667 105.999 -44s44 -64.666 44 -105.999v1z
M289.999 589.001c0 24 -8.83496 44.833 -26.502 62.5s-39.167 26.5 -64.5 26.5c-24 0 -44.833 -8.66699 -62.5 -26s-26.5 -38 -26.5 -62v-0.5v-0.5v-0.5v-0.5c0 -24.667 8.83301 -45.834 26.5 -63.501s38.834 -26.5 63.501 -26.5s45.834 8.83301 63.501 26.5
s26.5 38.834 26.5 63.501v1z" />
    <glyph glyph-name="bullet" horiz-adv-x="600" 
d="M471 318c0 -47.333 -16.5 -87.5 -49.5 -120.5s-72.833 -49.5 -119.5 -49.5s-86.334 16.5 -119.001 49.5s-49 72.833 -49 119.5s16.333 86.334 49 119.001s72.334 49 119.001 49s86.5 -16.333 119.5 -49s49.5 -72.334 49.5 -119.001v1z" />
    <glyph glyph-name="daggerdbl" horiz-adv-x="500" 
d="M0 259v118h500v-118h-500v0z" />
    </font>
</defs>
</svg>
